<svg id="8280f13a-27d2-4628-842e-3429a961192f" data-name="NoImage" xmlns="http://www.w3.org/2000/svg" viewBox="0 0 320.04 328.41"><defs><style>.\36 5c3baf1-40be-4728-986d-3176d653a14a{fill:#c9caca;}.\36 d0f3aae-5366-4810-8302-0b3afb4210dd{fill:#efefef;}.\33 c8aa460-118b-4a3f-8aae-69c70feddb20{fill:#fff;}.b8beb91f-e28f-4faf-9933-4d052e8863c2{opacity:0.3;}.\34 e7cdd2a-3b74-4f2a-8060-606c951960fd{fill:#b5b5b6;}</style></defs><title>nopic</title><ellipse id="20e83a37-a09d-4283-9b0e-48981cfd1bcc" data-name="css2" class="65c3baf1-40be-4728-986d-3176d653a14a" cx="185.95" cy="131.83" rx="124.87" ry="127.04"/><ellipse id="fdefc5b3-8335-4a69-af5a-81dfaab05163" data-name="逐浪CMS" class="6d0f3aae-5366-4810-8302-0b3afb4210dd" cx="133" cy="131.83" rx="124.87" ry="127.04"/><path id="3784eba6-a62f-484b-9004-dc2698623310" data-name="z01.com" class="3c8aa460-118b-4a3f-8aae-69c70feddb20" d="M8.7,144c76.89,5,167.55-15.66,172.19-17.87-54.7-3-109.32-17.41-163.89-41.33,101.71,22.71,185,25.74,228.48-8.22,9,17.82,12.36,29.34,12.12,47.22-50.09,36-101.13,37.25-173.37,43.1,99.37,7.82,96.55,9.14,168.64,3.58C170.62,212.08,54.59,199.47,8.7,144Z" transform="translate(0 0.08)"/><g class="b8beb91f-e28f-4faf-9933-4d052e8863c2"><polygon class="4e7cdd2a-3b74-4f2a-8060-606c951960fd" points="11.71 127.09 9.32 121.99 14.64 125.7 16.13 124.99 12.76 117.86 11.37 118.52 13.7 123.5 8.51 119.87 6.94 120.62 10.31 127.75 11.71 127.09"/><path class="4e7cdd2a-3b74-4f2a-8060-606c951960fd" d="M17.28,117.73a3,3,0,0,0-1.57,1.57,3.08,3.08,0,0,0,4.2,4,3,3,0,0,0,1.57-1.57,3.46,3.46,0,0,0-2-4.22A3,3,0,0,0,17.28,117.73ZM19.14,119a2.76,2.76,0,0,1,1,2.12,1.39,1.39,0,0,1-1.57,1.18,1.55,1.55,0,0,1-.51-.18,2.36,2.36,0,0,1-.73-1,2.3,2.3,0,0,1-.26-1.18,1.39,1.39,0,0,1,1.57-1.18,1.55,1.55,0,0,1,.51.18Z" transform="translate(0 0.08)"/><rect class="4e7cdd2a-3b74-4f2a-8060-606c951960fd" x="24.52" y="112.25" width="1.65" height="7.89" transform="translate(-47.24 22.07) rotate(-25.31)"/><path class="4e7cdd2a-3b74-4f2a-8060-606c951960fd" d="M33.76,110.5a2.11,2.11,0,0,0-1.54.16,1.66,1.66,0,0,0-.81.78,2.64,2.64,0,0,0-.2.73,2.26,2.26,0,0,0-.91-.36,2.1,2.1,0,0,0-1.85,1,2.06,2.06,0,0,0-.2.81l-.37-.78-1.33.63,2.5,5.29,1.39-.66-1.52-3.22a1.4,1.4,0,0,1-.15-.85.87.87,0,0,1,.53-.59.8.8,0,0,1,.91,0,1.93,1.93,0,0,1,.43.66l1.5,3.18,1.39-.66L32,113.51a1.41,1.41,0,0,1-.15-.9,1,1,0,0,1,.58-.63.72.72,0,0,1,.67,0,1.37,1.37,0,0,1,.58.7l1.52,3.21,1.39-.66-1.73-3.66A1.85,1.85,0,0,0,33.76,110.5Z" transform="translate(0 0.08)"/><path class="4e7cdd2a-3b74-4f2a-8060-606c951960fd" d="M42.06,112.13a1.65,1.65,0,0,1-.37-.57l-1.35-2.86a1.46,1.46,0,0,0-1.37-.9,4.19,4.19,0,0,0-2.84,1.36,2.09,2.09,0,0,0-.11,1.93l1.34-.64a1,1,0,0,1,0-.57.91.91,0,0,1,.56-.57,1.63,1.63,0,0,1,.64-.19.58.58,0,0,1,.57.38.39.39,0,0,1,0,.39.84.84,0,0,1-.28.25l-1.16.78a2.11,2.11,0,0,0-.88,1,1.72,1.72,0,0,0,.13,1.37,1.62,1.62,0,0,0,1.07.94,1.86,1.86,0,0,0,1.27-.16,2.48,2.48,0,0,0,1-.78,2.79,2.79,0,0,0,.38-.8,3,3,0,0,0,.42.57l1.5-.71-.1-.21A.41.41,0,0,1,42.06,112.13Zm-2.15.14a1.5,1.5,0,0,1-.73.7.75.75,0,0,1-.49.06.65.65,0,0,1-.45-.39.71.71,0,0,1,0-.72,1.84,1.84,0,0,1,.54-.5,4.44,4.44,0,0,0,.59-.46,1.26,1.26,0,0,0,.25-.31l.32.68A1,1,0,0,1,39.91,112.27Z" transform="translate(0 0.08)"/><path class="4e7cdd2a-3b74-4f2a-8060-606c951960fd" d="M45.78,104.42l-1.33.63.35.8a1.74,1.74,0,0,0-2-.19,2.21,2.21,0,0,0-1.22,1.4,3.91,3.91,0,0,0,2,4.11,2.29,2.29,0,0,0,1.93-.1,1.78,1.78,0,0,0,.82-.69,1.75,1.75,0,0,0,.22-.77h0l.3.64a1.14,1.14,0,0,1-.25,1.59,2.29,2.29,0,0,1-1.14.35.72.72,0,0,1-.37-.27l-1.51.71a1.5,1.5,0,0,0,1.32.87,3.4,3.4,0,0,0,1.74-.37c1.14-.54,1.77-1.21,1.9-2a3,3,0,0,0-.38-1.73Zm-.61,5.36a1,1,0,0,1-1.09-.08,2.05,2.05,0,0,1-.7-.87,2.14,2.14,0,0,1-.25-1.44,1,1,0,0,1,.57-.68,1.15,1.15,0,0,1,1.11,0,2,2,0,0,1,.81,1,2.24,2.24,0,0,1,.26,1.16A1.12,1.12,0,0,1,45.17,109.78Z" transform="translate(0 0.08)"/><path class="4e7cdd2a-3b74-4f2a-8060-606c951960fd" d="M51.88,106.11a.8.8,0,0,1-.13.58,1.18,1.18,0,0,1-.49.42,1.34,1.34,0,0,1-1,.12,1.8,1.8,0,0,1-.84-.82L53,104.69l-.12-.25a3.3,3.3,0,0,0-2-2,2.69,2.69,0,0,0-1.89.22,2.52,2.52,0,0,0-1.62,2.11,3.93,3.93,0,0,0,2.17,3.67,2.91,2.91,0,0,0,2.18-.26,2.78,2.78,0,0,0,1.2-1,2.45,2.45,0,0,0,.33-1.77ZM49,104.5a1.08,1.08,0,0,1,.62-.65,1.14,1.14,0,0,1,.79-.08,1.35,1.35,0,0,1,.81.69l-2.16,1A1.58,1.58,0,0,1,49,104.5Z" transform="translate(0 0.08)"/><polygon class="4e7cdd2a-3b74-4f2a-8060-606c951960fd" points="80.43 94.58 78.05 89.48 83.37 93.19 84.86 92.49 81.49 85.36 80.09 86.02 82.42 90.99 77.24 87.36 75.67 88.11 79.04 95.24 80.43 94.58"/><path class="4e7cdd2a-3b74-4f2a-8060-606c951960fd" d="M86.43,91a3.3,3.3,0,0,0,3.78-1.79,3.47,3.47,0,0,0-2-4.22,3.3,3.3,0,0,0-3.78,1.79A3.46,3.46,0,0,0,86.43,91Zm.13-4.61a1.24,1.24,0,0,1,1.31.06,2.43,2.43,0,0,1,.73,1,2.3,2.3,0,0,1,.26,1.18,1.39,1.39,0,0,1-1.57,1.18,1.55,1.55,0,0,1-.51-.18,2.8,2.8,0,0,1-1-2.12A1.22,1.22,0,0,1,86.56,86.39Z" transform="translate(0 0.08)"/><rect class="4e7cdd2a-3b74-4f2a-8060-606c951960fd" x="93.25" y="79.75" width="1.65" height="7.89" transform="translate(-26.75 48.33) rotate(-25.31)"/><path class="4e7cdd2a-3b74-4f2a-8060-606c951960fd" d="M99.17,85.64l-1.52-3.22a1.4,1.4,0,0,1-.15-.85A.84.84,0,0,1,98,81a.8.8,0,0,1,.91,0,1.93,1.93,0,0,1,.43.66l1.5,3.18,1.39-.66L100.76,81a1.41,1.41,0,0,1-.15-.9,1,1,0,0,1,.58-.63.79.79,0,0,1,.67,0,1.37,1.37,0,0,1,.58.7l1.56,3.2,1.39-.66-1.73-3.66a1.83,1.83,0,0,0-1.17-1,2.11,2.11,0,0,0-1.54.16,1.66,1.66,0,0,0-.81.78,2.64,2.64,0,0,0-.2.73,2.26,2.26,0,0,0-.91-.36,2.1,2.1,0,0,0-1.85,1,2.06,2.06,0,0,0-.2.81l-.37-.78L95.27,81l2.5,5.29Z" transform="translate(0 0.08)"/><path class="4e7cdd2a-3b74-4f2a-8060-606c951960fd" d="M107.51,77.68l-1.16.78a2.11,2.11,0,0,0-.88,1.05,1.77,1.77,0,0,0,.13,1.37,1.62,1.62,0,0,0,1.07.94,1.86,1.86,0,0,0,1.27-.16,2.48,2.48,0,0,0,1-.78,2.79,2.79,0,0,0,.38-.8,3,3,0,0,0,.42.57l1.5-.71-.1-.21a.44.44,0,0,1-.33-.11,1.65,1.65,0,0,1-.37-.57l-1.35-2.86a1.46,1.46,0,0,0-1.37-.9,3.22,3.22,0,0,0-1.46.36,3.35,3.35,0,0,0-1.38,1,2.09,2.09,0,0,0-.11,1.93l1.34-.63a1,1,0,0,1,0-.57.91.91,0,0,1,.56-.57,1.63,1.63,0,0,1,.64-.19.58.58,0,0,1,.57.38.39.39,0,0,1,0,.39A.89.89,0,0,1,107.51,77.68Zm.58.78a1.42,1.42,0,0,0,.25-.3l.32.68a1,1,0,0,1,0,.93,1.5,1.5,0,0,1-.73.7.75.75,0,0,1-.49.06.65.65,0,0,1-.45-.39.71.71,0,0,1,0-.72,1.84,1.84,0,0,1,.54-.5A4.15,4.15,0,0,0,108.09,78.46Z" transform="translate(0 0.08)"/><path class="4e7cdd2a-3b74-4f2a-8060-606c951960fd" d="M117.26,78.66a3,3,0,0,0-.38-1.73l-2.37-5-1.33.63.35.79a1.74,1.74,0,0,0-2-.19,2.18,2.18,0,0,0-1.22,1.41,3.91,3.91,0,0,0,2,4.11,2.29,2.29,0,0,0,1.93-.1,1.78,1.78,0,0,0,.82-.69,1.75,1.75,0,0,0,.22-.77h0l.3.64a1.13,1.13,0,0,1-.27,1.59.94.94,0,0,1-.26.14,1.52,1.52,0,0,1-.86.2.72.72,0,0,1-.37-.27l-1.51.71a1.5,1.5,0,0,0,1.32.87,3.4,3.4,0,0,0,1.74-.37C116.5,80.09,117.13,79.43,117.26,78.66Zm-3.36-1.38a1,1,0,0,1-1.09-.08,2.05,2.05,0,0,1-.7-.87,2.14,2.14,0,0,1-.25-1.44,1,1,0,0,1,.57-.68,1.15,1.15,0,0,1,1.11,0,2,2,0,0,1,.81,1,2.24,2.24,0,0,1,.26,1.16A1.12,1.12,0,0,1,113.9,77.28Z" transform="translate(0 0.08)"/><path class="4e7cdd2a-3b74-4f2a-8060-606c951960fd" d="M121.71,74.7a2.45,2.45,0,0,0,.33-1.77l-1.43.68a.77.77,0,0,1-.13.59,1.15,1.15,0,0,1-.49.41,1.34,1.34,0,0,1-1,.12,1.8,1.8,0,0,1-.84-.82l3.63-1.72-.12-.25a3.3,3.3,0,0,0-2-2,2.69,2.69,0,0,0-1.89.22,2.52,2.52,0,0,0-1.62,2.11A4.05,4.05,0,0,0,118.34,76a2.91,2.91,0,0,0,2.18-.26A2.86,2.86,0,0,0,121.71,74.7Zm-4-2.71a1.08,1.08,0,0,1,.62-.65,1.14,1.14,0,0,1,.79-.08,1.35,1.35,0,0,1,.81.69l-2.16,1a1.55,1.55,0,0,1-.09-1Z" transform="translate(0 0.08)"/><polygon class="4e7cdd2a-3b74-4f2a-8060-606c951960fd" points="148.79 59.61 143.6 55.98 142.03 56.72 145.4 63.85 146.8 63.2 144.41 58.1 149.73 61.81 151.22 61.1 147.85 53.97 146.46 54.63 148.79 59.61"/><path class="4e7cdd2a-3b74-4f2a-8060-606c951960fd" d="M152.8,59.62a3.3,3.3,0,0,0,3.78-1.79,3.47,3.47,0,0,0-2-4.22,3.3,3.3,0,0,0-3.78,1.79A3.46,3.46,0,0,0,152.8,59.62Zm.13-4.61a1.24,1.24,0,0,1,1.31.06A2.37,2.37,0,0,1,155,56a2.3,2.3,0,0,1,.26,1.18,1.39,1.39,0,0,1-1.57,1.18,1.55,1.55,0,0,1-.51-.18,2.8,2.8,0,0,1-1-2.12,1.23,1.23,0,0,1,.75-1.06Z" transform="translate(0 0.08)"/><rect class="4e7cdd2a-3b74-4f2a-8060-606c951960fd" x="159.61" y="48.36" width="1.65" height="7.89" transform="translate(-6.96 73.69) rotate(-25.31)"/><path class="4e7cdd2a-3b74-4f2a-8060-606c951960fd" d="M165.53,54.25,164,51a1.4,1.4,0,0,1-.15-.85.87.87,0,0,1,.53-.59.8.8,0,0,1,.91,0,1.93,1.93,0,0,1,.43.66l1.5,3.18,1.39-.66-1.5-3.17a1.41,1.41,0,0,1-.15-.9,1,1,0,0,1,.58-.63.79.79,0,0,1,.67,0,1.37,1.37,0,0,1,.58.7L170.32,52l1.39-.66L170,47.67a1.85,1.85,0,0,0-1.13-1.06,2.11,2.11,0,0,0-1.54.16,1.66,1.66,0,0,0-.81.78,2.64,2.64,0,0,0-.2.73,2.26,2.26,0,0,0-.91-.36,2.1,2.1,0,0,0-1.85,1,2.06,2.06,0,0,0-.2.81L163,49l-1.33.63,2.5,5.29Z" transform="translate(0 0.08)"/><path class="4e7cdd2a-3b74-4f2a-8060-606c951960fd" d="M172.45,46.6a1,1,0,0,1,0-.57.91.91,0,0,1,.56-.57,1.63,1.63,0,0,1,.64-.19.58.58,0,0,1,.57.38.39.39,0,0,1,0,.39.84.84,0,0,1-.28.25l-1.16.78a2.11,2.11,0,0,0-.88,1A1.75,1.75,0,0,0,172,49.5a1.62,1.62,0,0,0,1.07.94,1.86,1.86,0,0,0,1.27-.16,2.48,2.48,0,0,0,1-.78,2.79,2.79,0,0,0,.38-.8,3,3,0,0,0,.42.57l1.5-.71-.1-.21a.44.44,0,0,1-.33-.11,1.65,1.65,0,0,1-.37-.57l-1.35-2.86a1.46,1.46,0,0,0-1.37-.9,3.22,3.22,0,0,0-1.46.36,3.35,3.35,0,0,0-1.38,1,2.09,2.09,0,0,0-.11,1.93Zm2.25.17.32.68a1,1,0,0,1,0,.93,1.5,1.5,0,0,1-.73.7.75.75,0,0,1-.49.06.65.65,0,0,1-.45-.39.71.71,0,0,1,0-.72,1.84,1.84,0,0,1,.54-.5,4.44,4.44,0,0,0,.59-.46,1.25,1.25,0,0,0,.21-.3Z" transform="translate(0 0.08)"/><path class="4e7cdd2a-3b74-4f2a-8060-606c951960fd" d="M180.87,40.53l-1.33.63.35.79a1.74,1.74,0,0,0-2-.19,2.18,2.18,0,0,0-1.22,1.41,3.91,3.91,0,0,0,2,4.11,2.29,2.29,0,0,0,1.93-.1,1.78,1.78,0,0,0,.82-.69,1.75,1.75,0,0,0,.22-.77h0l.3.64a1.13,1.13,0,0,1-.27,1.59.94.94,0,0,1-.26.14,1.52,1.52,0,0,1-.86.2.72.72,0,0,1-.37-.27l-1.51.71a1.5,1.5,0,0,0,1.32.87,3.4,3.4,0,0,0,1.74-.37c1.14-.54,1.77-1.21,1.9-2a3,3,0,0,0-.38-1.73Zm-.61,5.36a1,1,0,0,1-1.09-.08,2.05,2.05,0,0,1-.7-.87,2.14,2.14,0,0,1-.25-1.44,1,1,0,0,1,.57-.68,1.15,1.15,0,0,1,1.11,0,2,2,0,0,1,.81,1A2.14,2.14,0,0,1,181,45,1.13,1.13,0,0,1,180.26,45.89Z" transform="translate(0 0.08)"/><path class="4e7cdd2a-3b74-4f2a-8060-606c951960fd" d="M187,42.22a.77.77,0,0,1-.13.59,1.15,1.15,0,0,1-.49.41,1.34,1.34,0,0,1-1,.12,1.8,1.8,0,0,1-.84-.82l3.63-1.72-.12-.25a3.3,3.3,0,0,0-2-2,2.69,2.69,0,0,0-1.89.22,2.52,2.52,0,0,0-1.62,2.11,3.93,3.93,0,0,0,2.17,3.67,2.91,2.91,0,0,0,2.18-.26,2.78,2.78,0,0,0,1.2-1,2.45,2.45,0,0,0,.33-1.77Zm-3-1.61a1.08,1.08,0,0,1,.62-.65,1.14,1.14,0,0,1,.79-.08,1.35,1.35,0,0,1,.81.69l-2.16,1A1.58,1.58,0,0,1,184,40.61Z" transform="translate(0 0.08)"/><polygon class="4e7cdd2a-3b74-4f2a-8060-606c951960fd" points="4.76 188.09 2.38 182.99 7.7 186.7 9.19 185.99 5.82 178.86 4.43 179.52 6.75 184.5 1.57 180.87 0 181.62 3.37 188.75 4.76 188.09"/><path class="4e7cdd2a-3b74-4f2a-8060-606c951960fd" d="M14.36,180.23a3,3,0,0,0-1.81-1.72,3,3,0,0,0-2.21.22A2.78,2.78,0,0,0,9,182.79a3,3,0,0,0,1.81,1.72,3,3,0,0,0,2.21-.22,2.78,2.78,0,0,0,1.34-4.06Zm-1.94,2.89a1.24,1.24,0,0,1-1.31-.06,2.36,2.36,0,0,1-.73-.95,2.3,2.3,0,0,1-.26-1.18,1.21,1.21,0,0,1,.78-1,1.24,1.24,0,0,1,1.31.06,2.76,2.76,0,0,1,1,2.12A1.22,1.22,0,0,1,12.42,183.12Z" transform="translate(0 0.08)"/><rect class="4e7cdd2a-3b74-4f2a-8060-606c951960fd" x="17.58" y="173.25" width="1.65" height="7.89" transform="translate(-74.01 24.98) rotate(-25.32)"/><path class="4e7cdd2a-3b74-4f2a-8060-606c951960fd" d="M25.52,173a.72.72,0,0,1,.67,0,1.37,1.37,0,0,1,.58.7l1.52,3.21,1.39-.66L28,172.56a1.85,1.85,0,0,0-1.13-1.06,2.11,2.11,0,0,0-1.54.16,1.66,1.66,0,0,0-.81.78,2.64,2.64,0,0,0-.2.73,2.26,2.26,0,0,0-.91-.36,2.1,2.1,0,0,0-1.85,1,2.06,2.06,0,0,0-.2.81l-.37-.78-1.33.63,2.5,5.29,1.39-.66L22,175.93a1.4,1.4,0,0,1-.15-.85.87.87,0,0,1,.53-.59.8.8,0,0,1,.91,0,1.93,1.93,0,0,1,.43.66l1.5,3.18,1.39-.66-1.5-3.17a1.41,1.41,0,0,1-.15-.9A1,1,0,0,1,25.52,173Z" transform="translate(0 0.08)"/><path class="4e7cdd2a-3b74-4f2a-8060-606c951960fd" d="M31.84,171.19l-1.16.78a2.11,2.11,0,0,0-.88,1,1.72,1.72,0,0,0,.13,1.37,1.62,1.62,0,0,0,1.07.94,1.86,1.86,0,0,0,1.27-.16,2.48,2.48,0,0,0,1-.78,2.79,2.79,0,0,0,.38-.8,3,3,0,0,0,.42.57l1.5-.71-.1-.21a.44.44,0,0,1-.33-.11,1.65,1.65,0,0,1-.37-.57L33.4,169.7a1.46,1.46,0,0,0-1.37-.9,4.19,4.19,0,0,0-2.84,1.36,2.09,2.09,0,0,0-.11,1.93l1.34-.64a1,1,0,0,1-.05-.57.91.91,0,0,1,.56-.57,1.63,1.63,0,0,1,.64-.19.58.58,0,0,1,.57.38.39.39,0,0,1,0,.39A.86.86,0,0,1,31.84,171.19Zm.58.78a1.26,1.26,0,0,0,.25-.31l.32.68a1,1,0,0,1,0,.93,1.5,1.5,0,0,1-.73.7.75.75,0,0,1-.49.06.65.65,0,0,1-.45-.39.71.71,0,0,1,0-.72,1.84,1.84,0,0,1,.54-.5,5.84,5.84,0,0,0,.56-.42Z" transform="translate(0 0.08)"/><path class="4e7cdd2a-3b74-4f2a-8060-606c951960fd" d="M35.87,166.65a2.21,2.21,0,0,0-1.22,1.4,3.91,3.91,0,0,0,2,4.11,2.29,2.29,0,0,0,1.93-.1,1.78,1.78,0,0,0,.82-.69,1.75,1.75,0,0,0,.22-.77h0l.3.64a1.14,1.14,0,0,1-.25,1.59,2.29,2.29,0,0,1-1.14.35.72.72,0,0,1-.37-.27l-1.51.71a1.5,1.5,0,0,0,1.32.87,3.4,3.4,0,0,0,1.74-.37c1.14-.54,1.77-1.21,1.9-2a3,3,0,0,0-.38-1.73l-2.37-5L37.5,166l.35.8a1.74,1.74,0,0,0-2-.19Zm2,1.09a2,2,0,0,1,.81,1,2.24,2.24,0,0,1,.26,1.16,1.13,1.13,0,0,1-.71.93,1,1,0,0,1-1.09-.08,2.05,2.05,0,0,1-.7-.87,2.14,2.14,0,0,1-.25-1.44,1,1,0,0,1,.57-.68,1.15,1.15,0,0,1,1.11,0Z" transform="translate(0 0.08)"/><path class="4e7cdd2a-3b74-4f2a-8060-606c951960fd" d="M46,165.44a3.3,3.3,0,0,0-2-2,2.69,2.69,0,0,0-1.89.22,2.52,2.52,0,0,0-1.62,2.11,3.93,3.93,0,0,0,2.17,3.67,2.91,2.91,0,0,0,2.18-.26,2.78,2.78,0,0,0,1.2-1,2.45,2.45,0,0,0,.33-1.77l-1.43.68a.8.8,0,0,1-.13.58,1.18,1.18,0,0,1-.49.42,1.34,1.34,0,0,1-1,.12,1.8,1.8,0,0,1-.84-.82l3.63-1.72Zm-3.9,1a1.56,1.56,0,0,1-.06-1,1.08,1.08,0,0,1,.62-.65,1.14,1.14,0,0,1,.79-.08,1.35,1.35,0,0,1,.81.69Z" transform="translate(0 0.08)"/><polygon class="4e7cdd2a-3b74-4f2a-8060-606c951960fd" points="73.49 155.58 71.11 150.48 76.43 154.2 77.92 153.49 74.55 146.36 73.15 147.02 75.48 151.99 70.3 148.36 68.73 149.11 72.1 156.24 73.49 155.58"/><path class="4e7cdd2a-3b74-4f2a-8060-606c951960fd" d="M83.09,147.73A3,3,0,0,0,81.28,146a3.3,3.3,0,0,0-3.78,1.79,3.46,3.46,0,0,0,2,4.22,3.3,3.3,0,0,0,3.78-1.79A3,3,0,0,0,83.09,147.73Zm-1.94,2.89a1.24,1.24,0,0,1-1.31-.06,2.8,2.8,0,0,1-1-2.12,1.39,1.39,0,0,1,1.57-1.18,1.55,1.55,0,0,1,.51.18,2.43,2.43,0,0,1,.73.95,2.3,2.3,0,0,1,.26,1.18A1.23,1.23,0,0,1,81.15,150.62Z" transform="translate(0 0.08)"/><rect class="4e7cdd2a-3b74-4f2a-8060-606c951960fd" x="86.31" y="140.75" width="1.65" height="7.89" transform="translate(-53.5 51.22) rotate(-25.31)"/><path class="4e7cdd2a-3b74-4f2a-8060-606c951960fd" d="M90,142.16l-.37-.78L88.3,142l2.5,5.29,1.39-.66-1.52-3.22a1.4,1.4,0,0,1-.15-.85.87.87,0,0,1,.53-.59.8.8,0,0,1,.91,0,1.93,1.93,0,0,1,.43.66l1.5,3.18,1.39-.66L93.82,142a1.41,1.41,0,0,1-.15-.9,1,1,0,0,1,.58-.63.79.79,0,0,1,.67,0,1.37,1.37,0,0,1,.58.7l1.5,3.2,1.39-.66-1.73-3.66A1.86,1.86,0,0,0,95.55,139a2.11,2.11,0,0,0-1.54.16,1.66,1.66,0,0,0-.81.78,2.64,2.64,0,0,0-.2.73,2.26,2.26,0,0,0-.91-.36A1.95,1.95,0,0,0,90,142.16Z" transform="translate(0 0.08)"/><path class="4e7cdd2a-3b74-4f2a-8060-606c951960fd" d="M100.57,138.68l-1.16.78a2.11,2.11,0,0,0-.88,1,1.77,1.77,0,0,0,.13,1.37,1.62,1.62,0,0,0,1.07.94,1.86,1.86,0,0,0,1.27-.16,2.48,2.48,0,0,0,1-.78,2.79,2.79,0,0,0,.38-.8,3,3,0,0,0,.42.57l1.5-.71-.1-.21a.44.44,0,0,1-.33-.11,1.65,1.65,0,0,1-.37-.57l-1.35-2.86a1.46,1.46,0,0,0-1.37-.9,3.22,3.22,0,0,0-1.46.36,3.35,3.35,0,0,0-1.38,1,2.09,2.09,0,0,0-.11,1.93l1.34-.63a1,1,0,0,1,0-.57.91.91,0,0,1,.56-.57,1.63,1.63,0,0,1,.64-.19.58.58,0,0,1,.57.38.39.39,0,0,1,0,.39A.89.89,0,0,1,100.57,138.68Zm.58.78a1.42,1.42,0,0,0,.25-.3l.32.68a1,1,0,0,1,0,.93,1.5,1.5,0,0,1-.73.7.75.75,0,0,1-.49.06.65.65,0,0,1-.45-.39.71.71,0,0,1,0-.72,1.84,1.84,0,0,1,.54-.5,4.15,4.15,0,0,0,.56-.46Z" transform="translate(0 0.08)"/><path class="4e7cdd2a-3b74-4f2a-8060-606c951960fd" d="M104.6,134.15a2.18,2.18,0,0,0-1.22,1.41,3.91,3.91,0,0,0,2,4.11,2.29,2.29,0,0,0,1.93-.1,1.78,1.78,0,0,0,.82-.69,1.75,1.75,0,0,0,.22-.77h0l.3.64a1.13,1.13,0,0,1-.27,1.59.94.94,0,0,1-.26.14,1.52,1.52,0,0,1-.86.2.72.72,0,0,1-.37-.27l-1.51.71a1.5,1.5,0,0,0,1.32.87,3.4,3.4,0,0,0,1.74-.37c1.14-.54,1.77-1.21,1.9-2a3,3,0,0,0-.38-1.73l-2.37-5-1.33.63.35.79a1.74,1.74,0,0,0-2-.19Zm2,1.09a2,2,0,0,1,.81,1,2.24,2.24,0,0,1,.26,1.16,1.13,1.13,0,0,1-.71.93,1,1,0,0,1-1.09-.08,2.05,2.05,0,0,1-.7-.87,2.14,2.14,0,0,1-.25-1.44,1,1,0,0,1,.57-.68,1.15,1.15,0,0,1,1.11,0Z" transform="translate(0 0.08)"/><path class="4e7cdd2a-3b74-4f2a-8060-606c951960fd" d="M114.7,132.93a3.3,3.3,0,0,0-2-2,2.69,2.69,0,0,0-1.89.22,2.52,2.52,0,0,0-1.62,2.11,3.35,3.35,0,0,0,.34,1.76,3.3,3.3,0,0,0,1.87,2,2.91,2.91,0,0,0,2.18-.26,2.78,2.78,0,0,0,1.2-1,2.45,2.45,0,0,0,.33-1.77l-1.43.68a.77.77,0,0,1-.13.59,1.15,1.15,0,0,1-.49.41,1.34,1.34,0,0,1-1,.12,1.8,1.8,0,0,1-.84-.82l3.63-1.72Zm-3.9,1a1.56,1.56,0,0,1-.06-1,1.08,1.08,0,0,1,.62-.65,1.14,1.14,0,0,1,.79-.08,1.35,1.35,0,0,1,.81.69Z" transform="translate(0 0.08)"/><polygon class="4e7cdd2a-3b74-4f2a-8060-606c951960fd" points="135.09 117.72 138.46 124.85 139.86 124.19 137.47 119.1 142.79 122.81 144.28 122.1 140.91 114.97 139.52 115.63 141.85 120.61 136.66 116.98 135.09 117.72"/><path class="4e7cdd2a-3b74-4f2a-8060-606c951960fd" d="M149.45,116.34a3,3,0,0,0-1.81-1.72,3.3,3.3,0,0,0-3.78,1.79,3.46,3.46,0,0,0,2,4.22,3.3,3.3,0,0,0,3.78-1.79A3,3,0,0,0,149.45,116.34Zm-1.94,2.89a1.24,1.24,0,0,1-1.31-.06,2.43,2.43,0,0,1-.73-1,2.3,2.3,0,0,1-.26-1.18,1.39,1.39,0,0,1,1.57-1.18,1.55,1.55,0,0,1,.51.18,2.43,2.43,0,0,1,.73.95,2.3,2.3,0,0,1,.26,1.18A1.22,1.22,0,0,1,147.51,119.23Z" transform="translate(0 0.08)"/><rect class="4e7cdd2a-3b74-4f2a-8060-606c951960fd" x="152.67" y="109.35" width="1.65" height="7.89" transform="translate(-33.71 76.61) rotate(-25.32)"/><path class="4e7cdd2a-3b74-4f2a-8060-606c951960fd" d="M156.4,110.77,156,110l-1.33.63,2.5,5.29,1.39-.66L157.07,112a1.4,1.4,0,0,1-.15-.85.87.87,0,0,1,.53-.59.8.8,0,0,1,.91,0,2,2,0,0,1,.44.66l1.5,3.18,1.39-.66-1.5-3.17a1.41,1.41,0,0,1-.15-.9,1,1,0,0,1,.59-.63.79.79,0,0,1,.67,0,1.37,1.37,0,0,1,.58.7L163.4,113l1.39-.66L163,108.67a1.85,1.85,0,0,0-1.13-1.06,2.11,2.11,0,0,0-1.54.16,1.66,1.66,0,0,0-.81.78,2.64,2.64,0,0,0-.2.73,2.26,2.26,0,0,0-.91-.36,2.1,2.1,0,0,0-1.85,1A2.07,2.07,0,0,0,156.4,110.77Z" transform="translate(0 0.08)"/><path class="4e7cdd2a-3b74-4f2a-8060-606c951960fd" d="M166.93,107.29l-1.16.78a2.11,2.11,0,0,0-.88,1.05,1.77,1.77,0,0,0,.13,1.37,1.62,1.62,0,0,0,1.07.94,1.86,1.86,0,0,0,1.27-.16,2.48,2.48,0,0,0,1-.78,2.79,2.79,0,0,0,.38-.8,3,3,0,0,0,.42.57l1.5-.71-.1-.21a.44.44,0,0,1-.33-.11,1.65,1.65,0,0,1-.37-.57l-1.35-2.86a1.46,1.46,0,0,0-1.37-.9,3.22,3.22,0,0,0-1.46.36,3.35,3.35,0,0,0-1.38,1,2.09,2.09,0,0,0-.11,1.93l1.34-.63a1,1,0,0,1-.05-.57.91.91,0,0,1,.56-.57,1.63,1.63,0,0,1,.64-.19.58.58,0,0,1,.57.38.39.39,0,0,1,0,.39A.89.89,0,0,1,166.93,107.29Zm.58.78a1.13,1.13,0,0,0,.24-.3l.32.68a1,1,0,0,1,0,.93,1.5,1.5,0,0,1-.73.7.75.75,0,0,1-.49.06.65.65,0,0,1-.45-.39.71.71,0,0,1,0-.72,1.84,1.84,0,0,1,.54-.5A5,5,0,0,0,167.51,108.07Z" transform="translate(0 0.08)"/><path class="4e7cdd2a-3b74-4f2a-8060-606c951960fd" d="M171,102.76a2.18,2.18,0,0,0-1.22,1.41,3.91,3.91,0,0,0,2,4.11,2.29,2.29,0,0,0,1.93-.1,1.78,1.78,0,0,0,.82-.69,1.75,1.75,0,0,0,.22-.77h0l.3.64a1.13,1.13,0,0,1-.25,1.58,1.25,1.25,0,0,1-.28.15,1.52,1.52,0,0,1-.86.2.72.72,0,0,1-.37-.27l-1.51.71a1.5,1.5,0,0,0,1.32.87,3.4,3.4,0,0,0,1.74-.37c1.14-.54,1.77-1.21,1.9-2a3,3,0,0,0-.38-1.73l-2.37-5-1.33.63.35.79a1.74,1.74,0,0,0-2-.19Zm2,1.09a2,2,0,0,1,.81,1A2.18,2.18,0,0,1,174,106a1.13,1.13,0,0,1-.71.93,1,1,0,0,1-1.09-.08,2.05,2.05,0,0,1-.7-.87,2.14,2.14,0,0,1-.25-1.44,1,1,0,0,1,.57-.68A1.16,1.16,0,0,1,173,103.85Z" transform="translate(0 0.08)"/><path class="4e7cdd2a-3b74-4f2a-8060-606c951960fd" d="M181.07,101.55a3.3,3.3,0,0,0-2-2,2.69,2.69,0,0,0-1.89.22,2.53,2.53,0,0,0-1.62,2.11,3.44,3.44,0,0,0,.35,1.76,3.34,3.34,0,0,0,1.83,1.91,2.91,2.91,0,0,0,2.18-.26,2.78,2.78,0,0,0,1.2-1,2.45,2.45,0,0,0,.33-1.77l-1.43.68a.77.77,0,0,1-.13.59,1.15,1.15,0,0,1-.49.41,1.34,1.34,0,0,1-1,.12,1.8,1.8,0,0,1-.84-.82l3.63-1.72Zm-3.9,1a1.56,1.56,0,0,1-.06-1,1.08,1.08,0,0,1,.62-.65,1.14,1.14,0,0,1,.79-.08,1.35,1.35,0,0,1,.81.69Z" transform="translate(0 0.08)"/><polygon class="4e7cdd2a-3b74-4f2a-8060-606c951960fd" points="4.76 246.27 2.38 241.17 7.7 244.88 9.19 244.18 5.82 237.05 4.43 237.7 6.75 242.68 1.57 239.05 0 239.8 3.37 246.93 4.76 246.27"/><path class="4e7cdd2a-3b74-4f2a-8060-606c951960fd" d="M12.55,236.69a3,3,0,0,0-2.21.22A2.8,2.8,0,0,0,9,241a3,3,0,0,0,1.81,1.72A3,3,0,0,0,13,242.5a2.84,2.84,0,0,0,1.39-4.06A3,3,0,0,0,12.55,236.69Zm-.13,4.61a1.24,1.24,0,0,1-1.31-.06,2.8,2.8,0,0,1-1-2.12,1.21,1.21,0,0,1,.78-1,1.22,1.22,0,0,1,1.31.06,2.43,2.43,0,0,1,.73.95,2.3,2.3,0,0,1,.26,1.18A1.2,1.2,0,0,1,12.42,241.3Z" transform="translate(0 0.08)"/><rect class="4e7cdd2a-3b74-4f2a-8060-606c951960fd" x="17.56" y="231.44" width="1.65" height="7.89" transform="translate(-98.86 30.54) rotate(-25.31)"/><path class="4e7cdd2a-3b74-4f2a-8060-606c951960fd" d="M25.52,231.16a.72.72,0,0,1,.67,0,1.37,1.37,0,0,1,.58.7l1.52,3.21,1.39-.66L28,230.74a1.83,1.83,0,0,0-1.13-1.06,2.11,2.11,0,0,0-1.54.16,1.66,1.66,0,0,0-.81.78,2.64,2.64,0,0,0-.2.73,2.26,2.26,0,0,0-.91-.36,2.1,2.1,0,0,0-1.85,1,2.06,2.06,0,0,0-.2.81L21,232l-1.33.63,2.5,5.29,1.39-.66L22,234.11a1.4,1.4,0,0,1-.15-.85.87.87,0,0,1,.53-.59.8.8,0,0,1,.91,0,1.93,1.93,0,0,1,.43.66l1.5,3.18,1.39-.66-1.5-3.17a1.41,1.41,0,0,1-.15-.9A1,1,0,0,1,25.52,231.16Z" transform="translate(0 0.08)"/><path class="4e7cdd2a-3b74-4f2a-8060-606c951960fd" d="M31.84,229.37l-1.16.78a2.11,2.11,0,0,0-.88,1,1.77,1.77,0,0,0,.13,1.37,1.62,1.62,0,0,0,1.07.94,1.86,1.86,0,0,0,1.27-.16,2.48,2.48,0,0,0,1-.78,2.79,2.79,0,0,0,.38-.8,3,3,0,0,0,.42.57l1.5-.71-.1-.21a.44.44,0,0,1-.33-.11,1.81,1.81,0,0,1-.37-.57l-1.35-2.86A1.45,1.45,0,0,0,32,227a3.22,3.22,0,0,0-1.46.36,3.35,3.35,0,0,0-1.38,1,2.09,2.09,0,0,0-.11,1.93l1.34-.63a1,1,0,0,1-.05-.57.91.91,0,0,1,.56-.57,1.63,1.63,0,0,1,.64-.19.58.58,0,0,1,.57.38.39.39,0,0,1,0,.39A.87.87,0,0,1,31.84,229.37Zm.58.78a1.26,1.26,0,0,0,.25-.31l.32.68a1,1,0,0,1,0,.93,1.5,1.5,0,0,1-.73.7.75.75,0,0,1-.49.06.65.65,0,0,1-.45-.39.71.71,0,0,1,0-.72,1.84,1.84,0,0,1,.54-.5A6.12,6.12,0,0,0,32.42,230.15Z" transform="translate(0 0.08)"/><path class="4e7cdd2a-3b74-4f2a-8060-606c951960fd" d="M39.36,231.17a1.52,1.52,0,0,1-.86.2.72.72,0,0,1-.37-.27l-1.51.71a1.5,1.5,0,0,0,1.32.87,3.4,3.4,0,0,0,1.74-.37c1.14-.54,1.77-1.21,1.9-2a3,3,0,0,0-.38-1.73l-2.37-5-1.33.63.35.79a1.74,1.74,0,0,0-2-.19,2.18,2.18,0,0,0-1.22,1.41,3.91,3.91,0,0,0,2,4.11,2.29,2.29,0,0,0,1.93-.1,1.78,1.78,0,0,0,.82-.69,1.75,1.75,0,0,0,.22-.77h0l.3.64a1.13,1.13,0,0,1-.54,1.76ZM38.23,229a1,1,0,0,1-1.09-.08,2.05,2.05,0,0,1-.7-.87,2.14,2.14,0,0,1-.25-1.44,1,1,0,0,1,.57-.69,1.15,1.15,0,0,1,1.11,0,2,2,0,0,1,.81,1,2.24,2.24,0,0,1,.26,1.16A1.13,1.13,0,0,1,38.23,229Z" transform="translate(0 0.08)"/><path class="4e7cdd2a-3b74-4f2a-8060-606c951960fd" d="M42.67,227.66a2.91,2.91,0,0,0,2.18-.26,2.78,2.78,0,0,0,1.2-1,2.45,2.45,0,0,0,.33-1.77l-1.43.68a.8.8,0,0,1-.13.58,1.18,1.18,0,0,1-.49.42,1.34,1.34,0,0,1-1,.12,1.8,1.8,0,0,1-.84-.82l3.63-1.72-.12-.25a3.3,3.3,0,0,0-2-2,2.69,2.69,0,0,0-1.89.22A2.53,2.53,0,0,0,40.5,224a3.35,3.35,0,0,0,.34,1.76A3.29,3.29,0,0,0,42.67,227.66Zm-.66-4a1.08,1.08,0,0,1,.62-.65,1.14,1.14,0,0,1,.79-.08,1.35,1.35,0,0,1,.81.69l-2.16,1a1.59,1.59,0,0,1-.07-.94Z" transform="translate(0 0.08)"/><polygon class="4e7cdd2a-3b74-4f2a-8060-606c951960fd" points="73.49 213.76 71.11 208.66 76.43 212.37 77.92 211.67 74.55 204.54 73.15 205.2 75.48 210.17 70.3 206.55 68.73 207.29 72.1 214.42 73.49 213.76"/><path class="4e7cdd2a-3b74-4f2a-8060-606c951960fd" d="M81.28,204.18A3.29,3.29,0,0,0,77.5,206a3.46,3.46,0,0,0,2,4.22,3.3,3.3,0,0,0,3.78-1.79,3.47,3.47,0,0,0-2-4.22Zm-.13,4.61a1.24,1.24,0,0,1-1.31-.06,2.8,2.8,0,0,1-1-2.12,1.39,1.39,0,0,1,1.57-1.18,1.55,1.55,0,0,1,.51.18,2.43,2.43,0,0,1,.73.95,2.3,2.3,0,0,1,.26,1.18,1.22,1.22,0,0,1-.76,1.06Z" transform="translate(0 0.08)"/><rect class="4e7cdd2a-3b74-4f2a-8060-606c951960fd" x="86.31" y="198.93" width="1.65" height="7.89" transform="translate(-78.37 56.81) rotate(-25.31)"/><path class="4e7cdd2a-3b74-4f2a-8060-606c951960fd" d="M94.25,198.66a.72.72,0,0,1,.67,0,1.37,1.37,0,0,1,.58.7l1.5,3.2,1.39-.66-1.73-3.66a1.83,1.83,0,0,0-1.13-1.06,2.11,2.11,0,0,0-1.54.16,1.66,1.66,0,0,0-.81.78,2.64,2.64,0,0,0-.2.73,2.26,2.26,0,0,0-.91-.36,2.1,2.1,0,0,0-1.85,1,2.06,2.06,0,0,0-.2.81l-.37-.78-1.33.63,2.5,5.29,1.39-.66L90.7,201.6a1.4,1.4,0,0,1-.15-.85.87.87,0,0,1,.53-.59.8.8,0,0,1,.91,0,1.93,1.93,0,0,1,.43.66l1.5,3.18,1.39-.66-1.5-3.17a1.4,1.4,0,0,1-.15-.9A1,1,0,0,1,94.25,198.66Z" transform="translate(0 0.08)"/><path class="4e7cdd2a-3b74-4f2a-8060-606c951960fd" d="M100.57,196.86l-1.16.78a2.11,2.11,0,0,0-.88,1.05,1.77,1.77,0,0,0,.13,1.37,1.62,1.62,0,0,0,1.07.94,1.86,1.86,0,0,0,1.27-.16,2.48,2.48,0,0,0,1-.78,2.79,2.79,0,0,0,.38-.8,3,3,0,0,0,.42.57l1.5-.71-.1-.21a.44.44,0,0,1-.33-.11,1.65,1.65,0,0,1-.37-.57l-1.35-2.86a1.46,1.46,0,0,0-1.37-.9,4.19,4.19,0,0,0-2.84,1.36,2.09,2.09,0,0,0-.11,1.93l1.34-.63a1,1,0,0,1,0-.57.91.91,0,0,1,.56-.57,1.63,1.63,0,0,1,.64-.19.58.58,0,0,1,.57.38.39.39,0,0,1,0,.39A.89.89,0,0,1,100.57,196.86Zm.58.78a1.13,1.13,0,0,0,.24-.3l.32.68a1,1,0,0,1,0,.93,1.5,1.5,0,0,1-.73.7.75.75,0,0,1-.49.06.65.65,0,0,1-.45-.39.71.71,0,0,1,0-.72,1.84,1.84,0,0,1,.54-.5A5,5,0,0,0,101.15,197.64Z" transform="translate(0 0.08)"/><path class="4e7cdd2a-3b74-4f2a-8060-606c951960fd" d="M105.33,197.85a2.29,2.29,0,0,0,1.93-.1,1.78,1.78,0,0,0,.82-.69,1.75,1.75,0,0,0,.22-.77h0l.3.64a1.14,1.14,0,0,1-.25,1.59,2.29,2.29,0,0,1-1.14.35.72.72,0,0,1-.37-.27l-1.51.71a1.5,1.5,0,0,0,1.32.87,3.51,3.51,0,0,0,1.74-.37c1.14-.54,1.77-1.21,1.9-2a3,3,0,0,0-.38-1.73l-2.37-5-1.33.63.35.8a1.74,1.74,0,0,0-2-.19,2.18,2.18,0,0,0-1.22,1.41,3.91,3.91,0,0,0,2,4.11Zm-.42-3.78a1,1,0,0,1,.57-.69,1.15,1.15,0,0,1,1.11,0,2,2,0,0,1,.81,1,2.24,2.24,0,0,1,.26,1.16,1.13,1.13,0,0,1-.71.93,1,1,0,0,1-1.09-.08,2.05,2.05,0,0,1-.7-.87,2.12,2.12,0,0,1-.24-1.46Z" transform="translate(0 0.08)"/><path class="4e7cdd2a-3b74-4f2a-8060-606c951960fd" d="M114.7,191.11a3.3,3.3,0,0,0-2-2,2.69,2.69,0,0,0-1.89.22,2.52,2.52,0,0,0-1.62,2.11,3.44,3.44,0,0,0,.35,1.76,3.34,3.34,0,0,0,1.83,1.91,2.91,2.91,0,0,0,2.18-.26,2.78,2.78,0,0,0,1.2-1,2.45,2.45,0,0,0,.33-1.77l-1.43.68a.77.77,0,0,1-.13.59,1.15,1.15,0,0,1-.49.41,1.34,1.34,0,0,1-1,.12,1.8,1.8,0,0,1-.84-.82l3.63-1.72Zm-3.9,1a1.56,1.56,0,0,1-.06-1,1.08,1.08,0,0,1,.62-.65,1.14,1.14,0,0,1,.79-.08,1.35,1.35,0,0,1,.81.69Z" transform="translate(0 0.08)"/><polygon class="4e7cdd2a-3b74-4f2a-8060-606c951960fd" points="138.46 183.04 139.85 182.38 137.47 177.27 142.79 180.99 144.28 180.28 140.91 173.15 139.52 173.81 141.85 178.79 136.66 175.16 135.09 175.9 138.46 183.04"/><path class="4e7cdd2a-3b74-4f2a-8060-606c951960fd" d="M148.07,178.58a2.84,2.84,0,0,0,1.57-3.7,3,3,0,0,0-.18-.36,3,3,0,0,0-1.81-1.72,3.3,3.3,0,0,0-3.78,1.79,3.46,3.46,0,0,0,2,4.22A3,3,0,0,0,148.07,178.58Zm-2.59-2.18a2.3,2.3,0,0,1-.26-1.18,1.39,1.39,0,0,1,1.57-1.18,1.55,1.55,0,0,1,.51.18,2.43,2.43,0,0,1,.73.95,2.3,2.3,0,0,1,.26,1.18,1.39,1.39,0,0,1-1.57,1.18,1.55,1.55,0,0,1-.51-.18,2.43,2.43,0,0,1-.73-.95Z" transform="translate(0 0.08)"/><rect class="4e7cdd2a-3b74-4f2a-8060-606c951960fd" x="152.67" y="167.55" width="1.65" height="7.89" transform="translate(-58.58 82.16) rotate(-25.31)"/><path class="4e7cdd2a-3b74-4f2a-8060-606c951960fd" d="M160.61,167.27a.72.72,0,0,1,.67,0,1.37,1.37,0,0,1,.58.7l1.52,3.21,1.39-.66L163,166.85a1.83,1.83,0,0,0-1.13-1.06,2.11,2.11,0,0,0-1.54.16,1.66,1.66,0,0,0-.81.78,2.64,2.64,0,0,0-.2.73,2.26,2.26,0,0,0-.91-.36,2.1,2.1,0,0,0-1.85,1,2.06,2.06,0,0,0-.2.81l-.37-.78-1.33.63,2.5,5.29,1.39-.66L157,170.17a1.4,1.4,0,0,1-.15-.85.87.87,0,0,1,.53-.59.8.8,0,0,1,.91,0,1.93,1.93,0,0,1,.43.66l1.5,3.18,1.39-.66-1.5-3.17a1.4,1.4,0,0,1-.15-.9A1,1,0,0,1,160.61,167.27Z" transform="translate(0 0.08)"/><path class="4e7cdd2a-3b74-4f2a-8060-606c951960fd" d="M166.93,165.47l-1.16.78a2.11,2.11,0,0,0-.88,1.05,1.77,1.77,0,0,0,.13,1.37,1.62,1.62,0,0,0,1.07.94,1.86,1.86,0,0,0,1.27-.16,2.48,2.48,0,0,0,1-.78,2.79,2.79,0,0,0,.38-.8,3,3,0,0,0,.42.57l1.5-.71-.1-.21a.44.44,0,0,1-.33-.11,1.81,1.81,0,0,1-.37-.57L168.49,164a1.46,1.46,0,0,0-1.37-.9,3.22,3.22,0,0,0-1.46.36,3.35,3.35,0,0,0-1.38,1,2.09,2.09,0,0,0-.11,1.93l1.34-.63a1,1,0,0,1,0-.57.91.91,0,0,1,.56-.57,1.63,1.63,0,0,1,.64-.19.58.58,0,0,1,.57.38.39.39,0,0,1,0,.39A.86.86,0,0,1,166.93,165.47Zm.58.78a1.42,1.42,0,0,0,.25-.3l.32.68a1,1,0,0,1,0,.93,1.5,1.5,0,0,1-.73.7.75.75,0,0,1-.49.06.65.65,0,0,1-.45-.39.71.71,0,0,1,0-.72,1.84,1.84,0,0,1,.54-.5A4.15,4.15,0,0,0,167.51,166.25Z" transform="translate(0 0.08)"/><path class="4e7cdd2a-3b74-4f2a-8060-606c951960fd" d="M174.46,167.28a1.52,1.52,0,0,1-.86.2.72.72,0,0,1-.37-.27l-1.51.71a1.5,1.5,0,0,0,1.32.87,3.51,3.51,0,0,0,1.74-.37c1.14-.54,1.77-1.21,1.9-2a3,3,0,0,0-.38-1.73l-2.37-5-1.33.63.35.8a1.74,1.74,0,0,0-2-.19,2.18,2.18,0,0,0-1.22,1.41,3.91,3.91,0,0,0,2,4.11,2.29,2.29,0,0,0,1.93-.1,1.78,1.78,0,0,0,.82-.69,1.75,1.75,0,0,0,.22-.77h0l.3.64a1.14,1.14,0,0,1-.24,1.59A1.08,1.08,0,0,1,174.46,167.28Zm-1.14-2.21a1,1,0,0,1-1.09-.08,2.05,2.05,0,0,1-.7-.87,2.14,2.14,0,0,1-.25-1.44,1,1,0,0,1,.57-.69,1.15,1.15,0,0,1,1.11,0,2,2,0,0,1,.81,1,2.24,2.24,0,0,1,.26,1.16,1.13,1.13,0,0,1-.71.92Z" transform="translate(0 0.08)"/><path class="4e7cdd2a-3b74-4f2a-8060-606c951960fd" d="M177.76,163.77a2.91,2.91,0,0,0,2.18-.26,2.78,2.78,0,0,0,1.2-1,2.45,2.45,0,0,0,.33-1.77l-1.43.68a.77.77,0,0,1-.13.59,1.15,1.15,0,0,1-.49.41,1.34,1.34,0,0,1-1,.12,1.76,1.76,0,0,1-.84-.82l3.63-1.72-.12-.25a3.3,3.3,0,0,0-2-2,2.69,2.69,0,0,0-1.89.22,2.52,2.52,0,0,0-1.62,2.11,4,4,0,0,0,2.18,3.69Zm-.66-4a1.08,1.08,0,0,1,.62-.65,1.14,1.14,0,0,1,.79-.08,1.35,1.35,0,0,1,.81.69l-2.16,1a1.51,1.51,0,0,1-.06-.94Z" transform="translate(0 0.08)"/><polygon class="4e7cdd2a-3b74-4f2a-8060-606c951960fd" points="5.61 306.56 7.94 311.54 2.76 307.91 1.18 308.65 4.55 315.78 5.95 315.13 3.56 310.02 8.88 313.74 10.37 313.03 7 305.9 5.61 306.56"/><path class="4e7cdd2a-3b74-4f2a-8060-606c951960fd" d="M13.73,305.55a3,3,0,0,0-2.21.22,2.85,2.85,0,0,0-1.34,4.05A3,3,0,0,0,12,311.54a3,3,0,0,0,2.21-.22,2.84,2.84,0,0,0,1.57-3.7,3,3,0,0,0-.18-.36A3,3,0,0,0,13.73,305.55Zm-.13,4.61a1.24,1.24,0,0,1-1.31-.06,2.8,2.8,0,0,1-1-2.12,1.21,1.21,0,0,1,.78-1,1.24,1.24,0,0,1,1.31.06,2.43,2.43,0,0,1,.73.95,2.3,2.3,0,0,1,.26,1.18,1.2,1.2,0,0,1-.77,1Z" transform="translate(0 0.08)"/><rect class="4e7cdd2a-3b74-4f2a-8060-606c951960fd" x="18.76" y="300.29" width="1.65" height="7.89" transform="translate(-128.19 37.66) rotate(-25.31)"/><path class="4e7cdd2a-3b74-4f2a-8060-606c951960fd" d="M28,298.54a2.11,2.11,0,0,0-1.54.16,1.66,1.66,0,0,0-.81.78,2.64,2.64,0,0,0-.2.73,2.26,2.26,0,0,0-.91-.36,2.1,2.1,0,0,0-1.85,1,2.06,2.06,0,0,0-.2.81l-.37-.78-1.33.63,2.5,5.29,1.39-.66L23.16,303a1.4,1.4,0,0,1-.15-.85.87.87,0,0,1,.53-.59.8.8,0,0,1,.91,0,1.93,1.93,0,0,1,.43.66l1.5,3.18,1.39-.66-1.5-3.17a1.41,1.41,0,0,1-.15-.9,1,1,0,0,1,.58-.63.79.79,0,0,1,.67,0,1.37,1.37,0,0,1,.58.7L29.47,304l1.39-.66-1.73-3.66A1.85,1.85,0,0,0,28,298.54Z" transform="translate(0 0.08)"/><path class="4e7cdd2a-3b74-4f2a-8060-606c951960fd" d="M36.3,300.16a1.65,1.65,0,0,1-.37-.57l-1.35-2.86a1.46,1.46,0,0,0-1.37-.9,3.22,3.22,0,0,0-1.46.36,3.35,3.35,0,0,0-1.38,1,2.09,2.09,0,0,0-.11,1.93l1.34-.63a1,1,0,0,1-.05-.57.91.91,0,0,1,.56-.57,1.63,1.63,0,0,1,.64-.19.58.58,0,0,1,.57.38.39.39,0,0,1,0,.39.84.84,0,0,1-.28.25l-1.16.78A2.11,2.11,0,0,0,31,300a1.77,1.77,0,0,0,.13,1.37,1.62,1.62,0,0,0,1.07.94,1.86,1.86,0,0,0,1.27-.16,2.48,2.48,0,0,0,1-.78,2.79,2.79,0,0,0,.38-.8,3,3,0,0,0,.42.57l1.5-.71-.1-.21A.44.44,0,0,1,36.3,300.16Zm-2.15.14a1.5,1.5,0,0,1-.73.7.75.75,0,0,1-.49.06.65.65,0,0,1-.45-.39.71.71,0,0,1,0-.72,1.84,1.84,0,0,1,.54-.5,4.44,4.44,0,0,0,.59-.46,1.42,1.42,0,0,0,.25-.3l.32.68a1,1,0,0,1,0,.94Z" transform="translate(0 0.08)"/><path class="4e7cdd2a-3b74-4f2a-8060-606c951960fd" d="M40,292.46l-1.33.63.35.79a1.74,1.74,0,0,0-2-.19,2.18,2.18,0,0,0-1.22,1.41,3.91,3.91,0,0,0,2,4.11,2.29,2.29,0,0,0,1.93-.1,1.78,1.78,0,0,0,.82-.69,1.75,1.75,0,0,0,.22-.77h0l.3.64a1.13,1.13,0,0,1-.27,1.59.94.94,0,0,1-.26.14,1.52,1.52,0,0,1-.86.2.72.72,0,0,1-.37-.27l-1.51.71a1.5,1.5,0,0,0,1.32.87,3.4,3.4,0,0,0,1.74-.37c1.14-.54,1.77-1.21,1.9-2a3,3,0,0,0-.38-1.73Zm-.61,5.36a1,1,0,0,1-1.09-.08,2.05,2.05,0,0,1-.7-.87,2.14,2.14,0,0,1-.25-1.44,1,1,0,0,1,.57-.68,1.15,1.15,0,0,1,1.11,0,2,2,0,0,1,.81,1,2.24,2.24,0,0,1,.26,1.16,1.13,1.13,0,0,1-.69.91Z" transform="translate(0 0.08)"/><path class="4e7cdd2a-3b74-4f2a-8060-606c951960fd" d="M46.12,294.15a.77.77,0,0,1-.13.59,1.15,1.15,0,0,1-.49.41,1.34,1.34,0,0,1-1,.12,1.8,1.8,0,0,1-.84-.82l3.63-1.72-.12-.25a3.3,3.3,0,0,0-2-2,2.69,2.69,0,0,0-1.89.22,2.52,2.52,0,0,0-1.62,2.11,3.93,3.93,0,0,0,2.17,3.67,2.91,2.91,0,0,0,2.18-.26,2.78,2.78,0,0,0,1.2-1,2.45,2.45,0,0,0,.33-1.77Zm-2.93-1.61a1.08,1.08,0,0,1,.62-.65,1.14,1.14,0,0,1,.79-.08,1.35,1.35,0,0,1,.81.69l-2.16,1a1.5,1.5,0,0,1,0-1Z" transform="translate(0 0.08)"/><polygon class="4e7cdd2a-3b74-4f2a-8060-606c951960fd" points="74.34 274.06 76.67 279.03 71.48 275.4 69.91 276.15 73.28 283.28 74.68 282.62 72.29 277.52 77.61 281.23 79.1 280.53 75.73 273.4 74.34 274.06"/><path class="4e7cdd2a-3b74-4f2a-8060-606c951960fd" d="M82.46,273a3.13,3.13,0,0,0-1.78,6,3.3,3.3,0,0,0,3.78-1.79,3.46,3.46,0,0,0-2-4.22Zm-.13,4.61a1.24,1.24,0,0,1-1.31-.06,2.8,2.8,0,0,1-1-2.12,1.39,1.39,0,0,1,1.57-1.18,1.55,1.55,0,0,1,.51.18,2.43,2.43,0,0,1,.73.95,2.3,2.3,0,0,1,.26,1.18,1.22,1.22,0,0,1-.76,1.09Z" transform="translate(0 0.08)"/><rect class="4e7cdd2a-3b74-4f2a-8060-606c951960fd" x="87.48" y="267.78" width="1.65" height="7.89" transform="translate(-107.69 63.92) rotate(-25.31)"/><path class="4e7cdd2a-3b74-4f2a-8060-606c951960fd" d="M96.73,266a2.11,2.11,0,0,0-1.54.16,1.66,1.66,0,0,0-.81.78,2.64,2.64,0,0,0-.2.73,2.26,2.26,0,0,0-.91-.36,2.1,2.1,0,0,0-1.85,1,2.06,2.06,0,0,0-.2.81l-.37-.78-1.33.63,2.5,5.29,1.39-.66-1.52-3.22a1.4,1.4,0,0,1-.15-.85.87.87,0,0,1,.53-.59.8.8,0,0,1,.91,0,1.93,1.93,0,0,1,.43.66l1.5,3.18,1.39-.66L95,269a1.41,1.41,0,0,1-.15-.9,1,1,0,0,1,.58-.63.72.72,0,0,1,.67,0,1.37,1.37,0,0,1,.58.7l1.52,3.21,1.39-.66-1.73-3.66A1.83,1.83,0,0,0,96.73,266Z" transform="translate(0 0.08)"/><path class="4e7cdd2a-3b74-4f2a-8060-606c951960fd" d="M105.46,268l-.1-.21a.44.44,0,0,1-.33-.11,1.81,1.81,0,0,1-.37-.57l-1.35-2.86a1.45,1.45,0,0,0-1.37-.89,3.22,3.22,0,0,0-1.46.36,3.35,3.35,0,0,0-1.38,1,2.09,2.09,0,0,0-.11,1.93l1.34-.63a1,1,0,0,1,0-.57.91.91,0,0,1,.56-.57,1.63,1.63,0,0,1,.64-.19.58.58,0,0,1,.57.38.39.39,0,0,1,0,.39.84.84,0,0,1-.28.25l-1.16.78a2.11,2.11,0,0,0-.88,1.05,1.77,1.77,0,0,0,.13,1.37,1.62,1.62,0,0,0,1.07.94,1.86,1.86,0,0,0,1.27-.16,2.48,2.48,0,0,0,1-.78,2.79,2.79,0,0,0,.38-.8,3,3,0,0,0,.42.57Zm-2.58-.18a1.5,1.5,0,0,1-.73.7.75.75,0,0,1-.49.06.65.65,0,0,1-.45-.39.71.71,0,0,1,0-.72,1.84,1.84,0,0,1,.54-.5,4.44,4.44,0,0,0,.59-.46,1.26,1.26,0,0,0,.25-.31l.32.68a1,1,0,0,1,0,.92Z" transform="translate(0 0.08)"/><path class="4e7cdd2a-3b74-4f2a-8060-606c951960fd" d="M109.28,267.53a1.52,1.52,0,0,1-.86.2.72.72,0,0,1-.37-.27l-1.51.71a1.5,1.5,0,0,0,1.32.87,3.4,3.4,0,0,0,1.74-.37c1.14-.54,1.77-1.21,1.9-2a3,3,0,0,0-.38-1.73l-2.37-5-1.33.63.35.79a1.74,1.74,0,0,0-2-.19,2.18,2.18,0,0,0-1.22,1.41,3.91,3.91,0,0,0,2,4.11,2.29,2.29,0,0,0,1.93-.1,1.78,1.78,0,0,0,.82-.69,1.75,1.75,0,0,0,.22-.77h0l.3.64a1.13,1.13,0,0,1-.54,1.76Zm-1.14-2.21a1,1,0,0,1-1.09-.08,2.05,2.05,0,0,1-.7-.87,2.14,2.14,0,0,1-.25-1.44,1,1,0,0,1,.57-.69,1.15,1.15,0,0,1,1.11,0,2,2,0,0,1,.81,1,2.24,2.24,0,0,1,.26,1.16,1.12,1.12,0,0,1-.71.91Z" transform="translate(0 0.08)"/><path class="4e7cdd2a-3b74-4f2a-8060-606c951960fd" d="M112.58,264a2.91,2.91,0,0,0,2.18-.26,2.78,2.78,0,0,0,1.2-1,2.45,2.45,0,0,0,.33-1.77l-1.43.68a.8.8,0,0,1-.13.58,1.18,1.18,0,0,1-.49.42,1.34,1.34,0,0,1-1,.12,1.8,1.8,0,0,1-.84-.82l3.63-1.72-.12-.25a3.3,3.3,0,0,0-2-2,2.69,2.69,0,0,0-1.89.22,2.52,2.52,0,0,0-1.62,2.12,3.94,3.94,0,0,0,2.18,3.68Zm-.66-4a1.08,1.08,0,0,1,.62-.65,1.14,1.14,0,0,1,.79-.08,1.35,1.35,0,0,1,.81.69L112,261A1.57,1.57,0,0,1,111.92,260Z" transform="translate(0 0.08)"/><polygon class="4e7cdd2a-3b74-4f2a-8060-606c951960fd" points="145.46 249.14 142.09 242.01 140.7 242.67 143.03 247.64 137.85 244.02 136.27 244.76 139.65 251.89 141.04 251.23 138.65 246.13 143.97 249.85 145.46 249.14"/><path class="4e7cdd2a-3b74-4f2a-8060-606c951960fd" d="M148.82,241.66a3.14,3.14,0,0,0-1.79,6,3.3,3.3,0,0,0,3.78-1.79,3.46,3.46,0,0,0-2-4.22Zm-.13,4.61a1.24,1.24,0,0,1-1.31-.06,2.8,2.8,0,0,1-1-2.12,1.39,1.39,0,0,1,1.57-1.18,1.55,1.55,0,0,1,.51.18,2.43,2.43,0,0,1,.73.95,2.3,2.3,0,0,1,.26,1.18A1.23,1.23,0,0,1,148.69,246.27Z" transform="translate(0 0.08)"/><rect class="4e7cdd2a-3b74-4f2a-8060-606c951960fd" x="153.86" y="236.38" width="1.65" height="7.89" transform="translate(-87.9 89.28) rotate(-25.31)"/><path class="4e7cdd2a-3b74-4f2a-8060-606c951960fd" d="M163.09,234.65a2.11,2.11,0,0,0-1.54.16,1.66,1.66,0,0,0-.81.78,2.64,2.64,0,0,0-.2.73,2.26,2.26,0,0,0-.91-.36,2.1,2.1,0,0,0-1.85,1,2.06,2.06,0,0,0-.2.81l-.37-.78-1.33.63,2.5,5.29,1.39-.66L158.25,239a1.4,1.4,0,0,1-.15-.85.87.87,0,0,1,.53-.59.8.8,0,0,1,.91,0,1.93,1.93,0,0,1,.43.66l1.51,3.18,1.39-.66-1.5-3.17a1.4,1.4,0,0,1-.15-.9,1,1,0,0,1,.58-.63.79.79,0,0,1,.67,0,1.37,1.37,0,0,1,.58.7l1.52,3.21,1.39-.66-1.73-3.66A1.84,1.84,0,0,0,163.09,234.65Z" transform="translate(0 0.08)"/><path class="4e7cdd2a-3b74-4f2a-8060-606c951960fd" d="M171.39,236.27a1.81,1.81,0,0,1-.37-.57l-1.35-2.86a1.45,1.45,0,0,0-1.37-.89,3.22,3.22,0,0,0-1.46.36,3.35,3.35,0,0,0-1.38,1,2.09,2.09,0,0,0-.11,1.93l1.34-.63a1,1,0,0,1-.05-.57.91.91,0,0,1,.56-.57,1.63,1.63,0,0,1,.64-.19.58.58,0,0,1,.57.38.39.39,0,0,1,0,.39.84.84,0,0,1-.28.25l-1.16.78a2.11,2.11,0,0,0-.88,1,1.72,1.72,0,0,0,.13,1.37,1.62,1.62,0,0,0,1.07.94,1.86,1.86,0,0,0,1.27-.16,2.48,2.48,0,0,0,1-.78,2.79,2.79,0,0,0,.38-.8,2.67,2.67,0,0,0,.43.57l1.5-.71-.1-.21A.41.41,0,0,1,171.39,236.27Zm-2.15.14a1.5,1.5,0,0,1-.73.7.75.75,0,0,1-.49.06.65.65,0,0,1-.45-.39.71.71,0,0,1,0-.72,1.84,1.84,0,0,1,.54-.5,4.44,4.44,0,0,0,.59-.46,1.26,1.26,0,0,0,.25-.31l.32.68a1,1,0,0,1,0,.95Z" transform="translate(0 0.08)"/><path class="4e7cdd2a-3b74-4f2a-8060-606c951960fd" d="M175.11,228.57l-1.33.63.35.79a1.74,1.74,0,0,0-2-.19,2.18,2.18,0,0,0-1.22,1.41,3.91,3.91,0,0,0,2,4.11,2.29,2.29,0,0,0,1.93-.1,1.78,1.78,0,0,0,.82-.69,1.75,1.75,0,0,0,.22-.77h0l.3.64a1.14,1.14,0,0,1-.25,1.59,2.29,2.29,0,0,1-1.14.35.72.72,0,0,1-.37-.27l-1.51.71a1.5,1.5,0,0,0,1.32.87,3.44,3.44,0,0,0,1.73-.37c1.14-.54,1.77-1.21,1.9-2a3,3,0,0,0-.38-1.73Zm-.61,5.36a1,1,0,0,1-1.09-.08,2.05,2.05,0,0,1-.7-.87,2.14,2.14,0,0,1-.25-1.44,1,1,0,0,1,.57-.69,1.15,1.15,0,0,1,1.11,0,2,2,0,0,1,.81,1,2.24,2.24,0,0,1,.26,1.16,1.13,1.13,0,0,1-.71.92Z" transform="translate(0 0.08)"/><path class="4e7cdd2a-3b74-4f2a-8060-606c951960fd" d="M181.21,230.25a.8.8,0,0,1-.13.58,1.18,1.18,0,0,1-.49.42,1.34,1.34,0,0,1-1,.12,1.8,1.8,0,0,1-.84-.82l3.63-1.72-.12-.25a3.3,3.3,0,0,0-2-2,2.69,2.69,0,0,0-1.89.22,2.52,2.52,0,0,0-1.62,2.12,3.93,3.93,0,0,0,2.17,3.67,2.91,2.91,0,0,0,2.18-.26,2.78,2.78,0,0,0,1.2-1,2.45,2.45,0,0,0,.33-1.77Zm-2.93-1.61a1.08,1.08,0,0,1,.62-.65,1.14,1.14,0,0,1,.79-.08,1.35,1.35,0,0,1,.81.69l-2.16,1a1.58,1.58,0,0,1-.05-1Z" transform="translate(0 0.08)"/><polygon class="4e7cdd2a-3b74-4f2a-8060-606c951960fd" points="108.11 319.19 110.44 324.16 105.26 320.53 103.68 321.28 107.06 328.41 108.45 327.75 106.06 322.65 111.38 326.36 112.87 325.66 109.5 318.53 108.11 319.19"/><path class="4e7cdd2a-3b74-4f2a-8060-606c951960fd" d="M116.23,318.17a3.3,3.3,0,0,0-3.78,1.79,3.46,3.46,0,0,0,2,4.22,3.3,3.3,0,0,0,3.78-1.79A3.47,3.47,0,0,0,116.23,318.17Zm-.13,4.61a1.24,1.24,0,0,1-1.31-.06,2.8,2.8,0,0,1-1-2.12,1.39,1.39,0,0,1,1.57-1.18,1.55,1.55,0,0,1,.51.18,2.43,2.43,0,0,1,.73.95,2.3,2.3,0,0,1,.26,1.18A1.23,1.23,0,0,1,116.1,322.78Z" transform="translate(0 0.08)"/><rect class="4e7cdd2a-3b74-4f2a-8060-606c951960fd" x="121.25" y="312.92" width="1.65" height="7.89" transform="translate(-123.75 82.69) rotate(-25.31)"/><path class="4e7cdd2a-3b74-4f2a-8060-606c951960fd" d="M130.5,311.16a2.11,2.11,0,0,0-1.54.16,1.66,1.66,0,0,0-.81.78,2.64,2.64,0,0,0-.2.73,2.26,2.26,0,0,0-.91-.36,2.1,2.1,0,0,0-1.85,1,2.06,2.06,0,0,0-.2.81l-.37-.78-1.33.63,2.5,5.29,1.39-.66-1.52-3.22a1.4,1.4,0,0,1-.15-.85.87.87,0,0,1,.53-.59.8.8,0,0,1,.91,0,1.93,1.93,0,0,1,.43.66l1.5,3.18,1.39-.66-1.5-3.17a1.41,1.41,0,0,1-.15-.9,1,1,0,0,1,.58-.63.79.79,0,0,1,.67,0,1.37,1.37,0,0,1,.58.7l1.52,3.21,1.39-.66-1.73-3.66A1.85,1.85,0,0,0,130.5,311.16Z" transform="translate(0 0.08)"/><path class="4e7cdd2a-3b74-4f2a-8060-606c951960fd" d="M138.8,312.79a1.65,1.65,0,0,1-.37-.57l-1.35-2.86a1.46,1.46,0,0,0-1.37-.9,3.22,3.22,0,0,0-1.46.36,3.35,3.35,0,0,0-1.38,1,2.09,2.09,0,0,0-.11,1.93l1.34-.63a1,1,0,0,1,0-.57.91.91,0,0,1,.56-.57,1.63,1.63,0,0,1,.64-.19.58.58,0,0,1,.57.38.39.39,0,0,1,0,.39.84.84,0,0,1-.28.25l-1.16.78a2.11,2.11,0,0,0-.88,1.05,1.77,1.77,0,0,0,.13,1.37,1.62,1.62,0,0,0,1.07.94,1.86,1.86,0,0,0,1.27-.16,2.48,2.48,0,0,0,1-.78,2.79,2.79,0,0,0,.38-.8,3,3,0,0,0,.42.57l1.5-.71-.1-.21A.44.44,0,0,1,138.8,312.79Zm-2.15.14a1.5,1.5,0,0,1-.73.7.75.75,0,0,1-.49.06.65.65,0,0,1-.45-.39.71.71,0,0,1,0-.72,1.84,1.84,0,0,1,.54-.5,4.44,4.44,0,0,0,.59-.46,1.42,1.42,0,0,0,.25-.3l.32.68a1,1,0,0,1,0,.93Z" transform="translate(0 0.08)"/><path class="4e7cdd2a-3b74-4f2a-8060-606c951960fd" d="M142.52,305.08l-1.33.63.35.79a1.74,1.74,0,0,0-2-.19,2.18,2.18,0,0,0-1.22,1.41,3.91,3.91,0,0,0,2,4.11,2.29,2.29,0,0,0,1.93-.1,1.8,1.8,0,0,0,1-1.5h0l.3.64a1.13,1.13,0,0,1-.27,1.59.94.94,0,0,1-.26.14,1.52,1.52,0,0,1-.86.2.72.72,0,0,1-.37-.27l-1.51.71a1.5,1.5,0,0,0,1.32.87,3.4,3.4,0,0,0,1.74-.37c1.14-.54,1.77-1.21,1.9-2a3,3,0,0,0-.38-1.73Zm-.61,5.36a1,1,0,0,1-1.09-.08,2.05,2.05,0,0,1-.7-.87,2.14,2.14,0,0,1-.25-1.44,1,1,0,0,1,.57-.68,1.15,1.15,0,0,1,1.11,0,2,2,0,0,1,.81,1,2.24,2.24,0,0,1,.26,1.16,1.13,1.13,0,0,1-.71.92Z" transform="translate(0 0.08)"/><path class="4e7cdd2a-3b74-4f2a-8060-606c951960fd" d="M148.62,306.77a.77.77,0,0,1-.13.59,1.15,1.15,0,0,1-.49.41,1.34,1.34,0,0,1-1,.12,1.8,1.8,0,0,1-.84-.82l3.63-1.72-.12-.25a3.3,3.3,0,0,0-2-2,2.69,2.69,0,0,0-1.89.22,2.52,2.52,0,0,0-1.62,2.11,3.93,3.93,0,0,0,2.17,3.67,2.91,2.91,0,0,0,2.18-.26,2.78,2.78,0,0,0,1.2-1,2.45,2.45,0,0,0,.33-1.77Zm-2.93-1.61a1.08,1.08,0,0,1,.62-.65,1.14,1.14,0,0,1,.79-.08,1.35,1.35,0,0,1,.81.69l-2.16,1a1.5,1.5,0,0,1-.05-1Z" transform="translate(0 0.08)"/><polygon class="4e7cdd2a-3b74-4f2a-8060-606c951960fd" points="195.04 282.68 197.37 287.66 192.19 284.03 190.61 284.77 193.98 291.9 195.38 291.25 192.99 286.14 198.31 289.86 199.8 289.15 196.43 282.02 195.04 282.68"/><path class="4e7cdd2a-3b74-4f2a-8060-606c951960fd" d="M203.16,281.67a3.14,3.14,0,0,0-1.79,6,3.3,3.3,0,0,0,3.78-1.79,3.46,3.46,0,0,0-2-4.22Zm-.13,4.61a1.24,1.24,0,0,1-1.31-.06,2.8,2.8,0,0,1-1-2.12,1.39,1.39,0,0,1,1.57-1.18,1.55,1.55,0,0,1,.51.18,2.43,2.43,0,0,1,.73.95,2.3,2.3,0,0,1,.26,1.18,1.23,1.23,0,0,1-.79,1Z" transform="translate(0 0.08)"/><rect class="4e7cdd2a-3b74-4f2a-8060-606c951960fd" x="208.18" y="276.42" width="1.65" height="7.89" transform="translate(-99.8 116.35) rotate(-25.31)"/><path class="4e7cdd2a-3b74-4f2a-8060-606c951960fd" d="M217.43,274.66a2.11,2.11,0,0,0-1.54.16,1.66,1.66,0,0,0-.81.78,2.64,2.64,0,0,0-.2.73A2.35,2.35,0,0,0,214,276a2.1,2.1,0,0,0-1.85,1,2.06,2.06,0,0,0-.2.81l-.37-.78-1.33.63,2.5,5.29,1.39-.66-1.52-3.22a1.4,1.4,0,0,1-.15-.85.87.87,0,0,1,.53-.59.8.8,0,0,1,.91,0,1.93,1.93,0,0,1,.43.66l1.5,3.18,1.39-.66-1.5-3.17a1.41,1.41,0,0,1-.15-.9,1,1,0,0,1,.58-.63.72.72,0,0,1,.67,0,1.37,1.37,0,0,1,.58.7L218.9,280l1.39-.66-1.73-3.66A1.82,1.82,0,0,0,217.43,274.66Z" transform="translate(0 0.08)"/><path class="4e7cdd2a-3b74-4f2a-8060-606c951960fd" d="M225.73,276.29a1.81,1.81,0,0,1-.37-.57L224,272.85a1.45,1.45,0,0,0-1.37-.89,3.22,3.22,0,0,0-1.46.36,3.35,3.35,0,0,0-1.38,1,2.09,2.09,0,0,0-.11,1.93l1.34-.63a1,1,0,0,1-.05-.57.91.91,0,0,1,.56-.57,1.63,1.63,0,0,1,.64-.19.58.58,0,0,1,.57.38.39.39,0,0,1,0,.39.84.84,0,0,1-.28.25l-1.16.78a2.11,2.11,0,0,0-.88,1.05,1.77,1.77,0,0,0,.13,1.37,1.62,1.62,0,0,0,1.07.94,1.86,1.86,0,0,0,1.27-.16,2.48,2.48,0,0,0,1-.78,2.79,2.79,0,0,0,.38-.8,3,3,0,0,0,.42.57l1.5-.71-.1-.21A.42.42,0,0,1,225.73,276.29Zm-2.15.14a1.5,1.5,0,0,1-.73.7.75.75,0,0,1-.49.06.65.65,0,0,1-.45-.39.71.71,0,0,1,0-.72,1.84,1.84,0,0,1,.54-.5,4.44,4.44,0,0,0,.59-.46,1.26,1.26,0,0,0,.25-.31l.32.68a1,1,0,0,1,0,.94Z" transform="translate(0 0.08)"/><path class="4e7cdd2a-3b74-4f2a-8060-606c951960fd" d="M229.45,268.58l-1.33.63.35.79a1.74,1.74,0,0,0-2-.19,2.18,2.18,0,0,0-1.22,1.41,3.91,3.91,0,0,0,2,4.11,2.29,2.29,0,0,0,1.93-.1,1.78,1.78,0,0,0,.82-.69,1.75,1.75,0,0,0,.22-.77h0l.3.64a1.14,1.14,0,0,1-.25,1.59,2.29,2.29,0,0,1-1.14.35.72.72,0,0,1-.37-.27l-1.51.71a1.5,1.5,0,0,0,1.32.87,3.4,3.4,0,0,0,1.74-.37c1.14-.54,1.77-1.21,1.9-2a3,3,0,0,0-.38-1.73Zm-.61,5.36a1,1,0,0,1-1.09-.08,2.05,2.05,0,0,1-.7-.87,2.14,2.14,0,0,1-.25-1.44,1,1,0,0,1,.57-.69,1.15,1.15,0,0,1,1.11,0,2,2,0,0,1,.81,1,2.24,2.24,0,0,1,.26,1.16,1.13,1.13,0,0,1-.71.92Z" transform="translate(0 0.08)"/><path class="4e7cdd2a-3b74-4f2a-8060-606c951960fd" d="M235.55,270.27a.8.8,0,0,1-.13.58,1.18,1.18,0,0,1-.49.42,1.34,1.34,0,0,1-1,.12,1.8,1.8,0,0,1-.84-.82l3.63-1.72-.12-.25a3.3,3.3,0,0,0-2-2,2.69,2.69,0,0,0-1.89.22,2.52,2.52,0,0,0-1.62,2.12,3.93,3.93,0,0,0,2.17,3.67,2.91,2.91,0,0,0,2.18-.26,2.78,2.78,0,0,0,1.2-1,2.45,2.45,0,0,0,.33-1.77Zm-2.93-1.61a1.08,1.08,0,0,1,.62-.65,1.14,1.14,0,0,1,.79-.08,1.35,1.35,0,0,1,.81.69l-2.16,1a1.58,1.58,0,0,1-.06-1Z" transform="translate(0 0.08)"/><polygon class="4e7cdd2a-3b74-4f2a-8060-606c951960fd" points="266.91 250.76 272.23 254.47 273.72 253.77 270.35 246.64 268.96 247.29 271.29 252.27 266.1 248.64 264.53 249.39 267.9 256.52 269.3 255.86 266.91 250.76"/><path class="4e7cdd2a-3b74-4f2a-8060-606c951960fd" d="M275.3,252.28a3.3,3.3,0,0,0,3.78-1.79,3.46,3.46,0,0,0-2-4.22,3,3,0,0,0-3.6,4.28A3,3,0,0,0,275.3,252.28Zm.13-4.61a1.22,1.22,0,0,1,1.31.06,2.43,2.43,0,0,1,.73,1,2.3,2.3,0,0,1,.26,1.18,1.39,1.39,0,0,1-1.57,1.18,1.55,1.55,0,0,1-.51-.18,2.8,2.8,0,0,1-1-2.12A1.22,1.22,0,0,1,275.43,247.67Z" transform="translate(0 0.08)"/><rect class="4e7cdd2a-3b74-4f2a-8060-606c951960fd" x="282.1" y="241.05" width="1.65" height="7.89" transform="translate(-77.58 144.55) rotate(-25.31)"/><path class="4e7cdd2a-3b74-4f2a-8060-606c951960fd" d="M290.05,240.75a.72.72,0,0,1,.67,0,1.37,1.37,0,0,1,.58.7l1.52,3.21,1.39-.66-1.73-3.66a1.83,1.83,0,0,0-1.13-1.06,2.11,2.11,0,0,0-1.54.16,1.66,1.66,0,0,0-.81.78,2.64,2.64,0,0,0-.2.73,2.26,2.26,0,0,0-.91-.36,2.1,2.1,0,0,0-1.85,1,2.06,2.06,0,0,0-.2.81l-.37-.78-1.33.63,2.5,5.29,1.39-.66-1.52-3.22a1.4,1.4,0,0,1-.15-.85.87.87,0,0,1,.53-.59.8.8,0,0,1,.91,0,1.93,1.93,0,0,1,.43.66l1.5,3.18,1.39-.66-1.5-3.17a1.41,1.41,0,0,1-.15-.9A1,1,0,0,1,290.05,240.75Z" transform="translate(0 0.08)"/><path class="4e7cdd2a-3b74-4f2a-8060-606c951960fd" d="M299.65,240.9a1.81,1.81,0,0,1-.37-.57l-1.35-2.86a1.45,1.45,0,0,0-1.37-.89,3.22,3.22,0,0,0-1.46.36,3.35,3.35,0,0,0-1.38,1,2.09,2.09,0,0,0-.11,1.93l1.34-.63a1,1,0,0,1-.05-.57.91.91,0,0,1,.56-.57,1.63,1.63,0,0,1,.64-.19.58.58,0,0,1,.57.38.39.39,0,0,1,0,.39.84.84,0,0,1-.28.25l-1.16.78a2.11,2.11,0,0,0-.88,1,1.77,1.77,0,0,0,.13,1.37,1.62,1.62,0,0,0,1.07.94,1.86,1.86,0,0,0,1.27-.16,2.48,2.48,0,0,0,1-.78,2.79,2.79,0,0,0,.38-.8,3,3,0,0,0,.42.57l1.5-.71L300,241A.44.44,0,0,1,299.65,240.9Zm-2.15.14a1.5,1.5,0,0,1-.73.7.75.75,0,0,1-.49.06.65.65,0,0,1-.45-.39.71.71,0,0,1,0-.72,1.84,1.84,0,0,1,.54-.5,4.44,4.44,0,0,0,.59-.46,1.26,1.26,0,0,0,.25-.31l.32.68a1,1,0,0,1,0,.9Z" transform="translate(0 0.08)"/><path class="4e7cdd2a-3b74-4f2a-8060-606c951960fd" d="M303.37,233.19l-1.33.63.35.79a1.74,1.74,0,0,0-2-.19,2.18,2.18,0,0,0-1.22,1.41,3.91,3.91,0,0,0,2,4.11,2.29,2.29,0,0,0,1.93-.1,1.78,1.78,0,0,0,.82-.69,1.75,1.75,0,0,0,.22-.77h0l.3.64a1.14,1.14,0,0,1-.25,1.59,2.29,2.29,0,0,1-1.14.35.72.72,0,0,1-.37-.27l-1.51.71a1.5,1.5,0,0,0,1.32.87,3.4,3.4,0,0,0,1.74-.37c1.14-.54,1.77-1.21,1.9-2a3,3,0,0,0-.38-1.73Zm-.61,5.36a1,1,0,0,1-1.09-.08,2.05,2.05,0,0,1-.7-.87,2.14,2.14,0,0,1-.25-1.44,1,1,0,0,1,.57-.69,1.15,1.15,0,0,1,1.11,0,2,2,0,0,1,.81,1,2.24,2.24,0,0,1,.26,1.16A1.13,1.13,0,0,1,302.76,238.55Z" transform="translate(0 0.08)"/><path class="4e7cdd2a-3b74-4f2a-8060-606c951960fd" d="M309.47,234.88a.8.8,0,0,1-.13.58,1.18,1.18,0,0,1-.49.42,1.34,1.34,0,0,1-1,.12,1.8,1.8,0,0,1-.84-.82l3.63-1.72-.12-.25a3.3,3.3,0,0,0-2-2,2.69,2.69,0,0,0-1.89.22,2.52,2.52,0,0,0-1.62,2.12,3.93,3.93,0,0,0,2.17,3.67,2.91,2.91,0,0,0,2.18-.26,2.78,2.78,0,0,0,1.2-1,2.45,2.45,0,0,0,.33-1.77Zm-2.93-1.61a1.08,1.08,0,0,1,.62-.65,1.14,1.14,0,0,1,.79-.08,1.35,1.35,0,0,1,.81.69l-2.16,1A1.58,1.58,0,0,1,306.54,233.27Z" transform="translate(0 0.08)"/><polygon class="4e7cdd2a-3b74-4f2a-8060-606c951960fd" points="257.41 306.45 259.74 311.43 254.56 307.8 252.99 308.54 256.36 315.67 257.75 315.01 255.36 309.91 260.69 313.63 262.18 312.92 258.81 305.79 257.41 306.45"/><path class="4e7cdd2a-3b74-4f2a-8060-606c951960fd" d="M265.54,305.44a3.14,3.14,0,0,0-1.79,6,3.14,3.14,0,0,0,1.78-6Zm-.13,4.61a1.24,1.24,0,0,1-1.31-.06,2.36,2.36,0,0,1-.73-.95,2.3,2.3,0,0,1-.26-1.18,1.39,1.39,0,0,1,1.57-1.18,1.55,1.55,0,0,1,.51.18,2.76,2.76,0,0,1,1,2.12,1.23,1.23,0,0,1-.78,1Z" transform="translate(0 0.08)"/><rect class="4e7cdd2a-3b74-4f2a-8060-606c951960fd" x="270.56" y="300.2" width="1.65" height="7.89" transform="translate(-103.97 145.3) rotate(-25.31)"/><path class="4e7cdd2a-3b74-4f2a-8060-606c951960fd" d="M279.8,298.43a2.11,2.11,0,0,0-1.54.16,1.66,1.66,0,0,0-.81.78,2.64,2.64,0,0,0-.2.73,2.26,2.26,0,0,0-.91-.36,2.1,2.1,0,0,0-1.85,1,2.06,2.06,0,0,0-.2.81l-.37-.78-1.33.63,2.5,5.29,1.39-.66L275,302.85a1.4,1.4,0,0,1-.15-.85.87.87,0,0,1,.53-.59.8.8,0,0,1,.91,0,1.93,1.93,0,0,1,.43.66l1.5,3.18,1.39-.66-1.5-3.17a1.41,1.41,0,0,1-.15-.9,1,1,0,0,1,.58-.63.72.72,0,0,1,.67,0,1.37,1.37,0,0,1,.58.7l1.52,3.21,1.39-.66L281,299.48A1.83,1.83,0,0,0,279.8,298.43Z" transform="translate(0 0.08)"/><path class="4e7cdd2a-3b74-4f2a-8060-606c951960fd" d="M288.11,300.05a1.65,1.65,0,0,1-.37-.57l-1.35-2.86a1.46,1.46,0,0,0-1.37-.9,4.19,4.19,0,0,0-2.84,1.36,2.09,2.09,0,0,0-.11,1.93l1.34-.64a1,1,0,0,1-.05-.57.91.91,0,0,1,.56-.57,1.63,1.63,0,0,1,.64-.19.58.58,0,0,1,.57.38.39.39,0,0,1,0,.39.84.84,0,0,1-.28.25l-1.16.78a2.11,2.11,0,0,0-.88,1.05,1.72,1.72,0,0,0,.13,1.37,1.62,1.62,0,0,0,1.07.94,1.86,1.86,0,0,0,1.27-.16,2.48,2.48,0,0,0,1-.78,2.79,2.79,0,0,0,.38-.8,3,3,0,0,0,.42.57l1.5-.71-.1-.21A.41.41,0,0,1,288.11,300.05Zm-2.15.14a1.5,1.5,0,0,1-.73.7.75.75,0,0,1-.49.06.65.65,0,0,1-.45-.39.71.71,0,0,1,0-.72,1.84,1.84,0,0,1,.54-.5,4.44,4.44,0,0,0,.59-.46,1.26,1.26,0,0,0,.25-.31l.32.68a1,1,0,0,1,0,.95Z" transform="translate(0 0.08)"/><path class="4e7cdd2a-3b74-4f2a-8060-606c951960fd" d="M291.82,292.35l-1.33.63.35.8a1.74,1.74,0,0,0-2-.19,2.21,2.21,0,0,0-1.22,1.4,3.91,3.91,0,0,0,2,4.11,2.29,2.29,0,0,0,1.93-.1,1.78,1.78,0,0,0,.82-.69,1.75,1.75,0,0,0,.22-.77h0l.3.64a1.14,1.14,0,0,1-.25,1.59,2.29,2.29,0,0,1-1.14.35.72.72,0,0,1-.37-.27l-1.51.71a1.5,1.5,0,0,0,1.32.87,3.4,3.4,0,0,0,1.74-.37c1.14-.54,1.77-1.21,1.9-2a3,3,0,0,0-.38-1.73Zm-.61,5.36a1,1,0,0,1-1.09-.08,2.05,2.05,0,0,1-.7-.87,2.14,2.14,0,0,1-.25-1.44,1,1,0,0,1,.57-.68,1.15,1.15,0,0,1,1.11,0,2,2,0,0,1,.81,1,2.24,2.24,0,0,1,.26,1.16,1.12,1.12,0,0,1-.71.91Z" transform="translate(0 0.08)"/><path class="4e7cdd2a-3b74-4f2a-8060-606c951960fd" d="M297.93,294a.8.8,0,0,1-.13.58,1.18,1.18,0,0,1-.49.42,1.34,1.34,0,0,1-1,.12,1.8,1.8,0,0,1-.84-.82l3.63-1.72-.12-.25a3.3,3.3,0,0,0-2-2,2.69,2.69,0,0,0-1.89.22,2.52,2.52,0,0,0-1.62,2.11,3.93,3.93,0,0,0,2.17,3.67,2.91,2.91,0,0,0,2.18-.26,2.78,2.78,0,0,0,1.2-1,2.45,2.45,0,0,0,.33-1.77ZM295,292.43a1.08,1.08,0,0,1,.62-.65,1.14,1.14,0,0,1,.79-.08,1.35,1.35,0,0,1,.81.69l-2.16,1A1.58,1.58,0,0,1,295,292.43Z" transform="translate(0 0.08)"/><polygon class="4e7cdd2a-3b74-4f2a-8060-606c951960fd" points="214.05 217.38 210.68 210.25 209.29 210.91 211.62 215.89 206.44 212.26 204.86 213 208.23 220.13 209.63 219.47 207.24 214.37 212.56 218.09 214.05 217.38"/><path class="4e7cdd2a-3b74-4f2a-8060-606c951960fd" d="M215.63,215.9a3.3,3.3,0,0,0,3.78-1.79,3.47,3.47,0,0,0-2-4.22,3.3,3.3,0,0,0-3.78,1.79A3.46,3.46,0,0,0,215.63,215.9Zm.13-4.61a1.24,1.24,0,0,1,1.31.06,2.43,2.43,0,0,1,.73,1,2.3,2.3,0,0,1,.26,1.18,1.39,1.39,0,0,1-1.57,1.18,1.55,1.55,0,0,1-.51-.18,2.8,2.8,0,0,1-1-2.12,1.22,1.22,0,0,1,.78-1.07Z" transform="translate(0 0.08)"/><rect class="4e7cdd2a-3b74-4f2a-8060-606c951960fd" x="222.44" y="204.65" width="1.65" height="7.89" transform="translate(-67.75 115.56) rotate(-25.31)"/><path class="4e7cdd2a-3b74-4f2a-8060-606c951960fd" d="M230.38,204.37a.79.79,0,0,1,.67,0,1.37,1.37,0,0,1,.58.7l1.52,3.21,1.39-.66L232.81,204a1.85,1.85,0,0,0-1.13-1.06,2.11,2.11,0,0,0-1.54.16,1.66,1.66,0,0,0-.81.78,2.64,2.64,0,0,0-.2.73,2.26,2.26,0,0,0-.91-.36,2.1,2.1,0,0,0-1.85,1,2.06,2.06,0,0,0-.2.81l-.37-.78-1.33.63,2.5,5.29,1.39-.66-1.52-3.22a1.4,1.4,0,0,1-.15-.85.87.87,0,0,1,.53-.59.8.8,0,0,1,.91,0,1.93,1.93,0,0,1,.43.66l1.5,3.18,1.39-.66L230,205.9a1.41,1.41,0,0,1-.15-.9A1,1,0,0,1,230.38,204.37Z" transform="translate(0 0.08)"/><path class="4e7cdd2a-3b74-4f2a-8060-606c951960fd" d="M240,204.51a1.65,1.65,0,0,1-.37-.57l-1.35-2.86a1.46,1.46,0,0,0-1.37-.9,3.22,3.22,0,0,0-1.46.36,3.35,3.35,0,0,0-1.38,1,2.09,2.09,0,0,0-.11,1.93l1.34-.63a1,1,0,0,1-.05-.57.91.91,0,0,1,.56-.57,1.63,1.63,0,0,1,.64-.19.58.58,0,0,1,.57.38.39.39,0,0,1,0,.39.84.84,0,0,1-.28.25l-1.16.78a2.11,2.11,0,0,0-.88,1.05,1.77,1.77,0,0,0,.13,1.37,1.62,1.62,0,0,0,1.07.94,1.86,1.86,0,0,0,1.27-.16,2.48,2.48,0,0,0,1-.78,2.79,2.79,0,0,0,.38-.8,3,3,0,0,0,.42.57l1.5-.71-.1-.21A.44.44,0,0,1,240,204.51Zm-2.15.14a1.5,1.5,0,0,1-.73.7.75.75,0,0,1-.49.06.65.65,0,0,1-.45-.39.71.71,0,0,1,0-.72,1.84,1.84,0,0,1,.54-.5,4.44,4.44,0,0,0,.59-.46,1.42,1.42,0,0,0,.25-.3l.32.68a1,1,0,0,1,0,.94Z" transform="translate(0 0.08)"/><path class="4e7cdd2a-3b74-4f2a-8060-606c951960fd" d="M243.7,196.81l-1.33.63.35.79a1.74,1.74,0,0,0-2-.19,2.18,2.18,0,0,0-1.22,1.41,3.91,3.91,0,0,0,2,4.11,2.29,2.29,0,0,0,1.93-.1,1.78,1.78,0,0,0,.82-.69,1.75,1.75,0,0,0,.22-.77h0l.3.64a1.13,1.13,0,0,1-.27,1.59.94.94,0,0,1-.26.14,1.52,1.52,0,0,1-.86.2.72.72,0,0,1-.37-.27l-1.51.71a1.5,1.5,0,0,0,1.32.87,3.4,3.4,0,0,0,1.74-.37c1.14-.54,1.77-1.21,1.9-2a3,3,0,0,0-.38-1.73Zm-.61,5.36a1,1,0,0,1-1.09-.08,2.05,2.05,0,0,1-.7-.87,2.14,2.14,0,0,1-.25-1.44,1,1,0,0,1,.57-.68,1.15,1.15,0,0,1,1.11,0,2,2,0,0,1,.81,1,2.24,2.24,0,0,1,.26,1.16A1.12,1.12,0,0,1,243.09,202.17Z" transform="translate(0 0.08)"/><path class="4e7cdd2a-3b74-4f2a-8060-606c951960fd" d="M249.8,198.5a.77.77,0,0,1-.13.59,1.15,1.15,0,0,1-.49.41,1.34,1.34,0,0,1-1,.12,1.8,1.8,0,0,1-.84-.82l3.63-1.72-.12-.25a3.3,3.3,0,0,0-2-2,2.69,2.69,0,0,0-1.89.22,2.52,2.52,0,0,0-1.62,2.11,3.93,3.93,0,0,0,2.17,3.67,2.91,2.91,0,0,0,2.18-.26,2.78,2.78,0,0,0,1.2-1,2.45,2.45,0,0,0,.33-1.77Zm-2.93-1.61a1.08,1.08,0,0,1,.62-.65,1.14,1.14,0,0,1,.79-.08,1.35,1.35,0,0,1,.81.69l-2.16,1a1.58,1.58,0,0,1-.06-1Z" transform="translate(0 0.08)"/><polygon class="4e7cdd2a-3b74-4f2a-8060-606c951960fd" points="282.78 184.88 279.41 177.75 278.02 178.4 280.35 183.38 275.16 179.75 273.59 180.5 276.96 187.63 278.35 186.97 275.97 181.87 281.29 185.58 282.78 184.88"/><path class="4e7cdd2a-3b74-4f2a-8060-606c951960fd" d="M286.14,177.39a3.14,3.14,0,0,0-1.79,6,3.3,3.3,0,0,0,3.78-1.79,3.46,3.46,0,0,0-2-4.22ZM286,182a1.24,1.24,0,0,1-1.31-.06,2.8,2.8,0,0,1-1-2.12,1.39,1.39,0,0,1,1.57-1.18,1.55,1.55,0,0,1,.51.18,2.43,2.43,0,0,1,.73,1,2.3,2.3,0,0,1,.26,1.18A1.23,1.23,0,0,1,286,182Z" transform="translate(0 0.08)"/><rect class="4e7cdd2a-3b74-4f2a-8060-606c951960fd" x="291.17" y="172.13" width="1.65" height="7.89" transform="translate(-47.25 141.88) rotate(-25.32)"/><path class="4e7cdd2a-3b74-4f2a-8060-606c951960fd" d="M299.11,171.86a.72.72,0,0,1,.67,0,1.37,1.37,0,0,1,.58.7l1.52,3.21,1.39-.66-1.73-3.66a1.83,1.83,0,0,0-1.13-1.06,2.11,2.11,0,0,0-1.54.16,1.66,1.66,0,0,0-.81.78,2.64,2.64,0,0,0-.2.73,2.26,2.26,0,0,0-.91-.36,2.1,2.1,0,0,0-1.85,1,2.06,2.06,0,0,0-.2.81l-.37-.78-1.33.63,2.5,5.29,1.39-.66-1.52-3.22a1.4,1.4,0,0,1-.15-.85.87.87,0,0,1,.53-.59.8.8,0,0,1,.91,0,1.93,1.93,0,0,1,.43.66l1.5,3.18,1.39-.66-1.5-3.17a1.41,1.41,0,0,1-.15-.9A1,1,0,0,1,299.11,171.86Z" transform="translate(0 0.08)"/><path class="4e7cdd2a-3b74-4f2a-8060-606c951960fd" d="M305.43,170.07l-1.16.78a2.11,2.11,0,0,0-.88,1.05,1.77,1.77,0,0,0,.13,1.37,1.62,1.62,0,0,0,1.07.94,1.86,1.86,0,0,0,1.27-.16,2.48,2.48,0,0,0,1-.78,2.79,2.79,0,0,0,.38-.8,3,3,0,0,0,.42.57l1.5-.71-.1-.21a.44.44,0,0,1-.33-.11,1.81,1.81,0,0,1-.37-.57L307,168.58a1.45,1.45,0,0,0-1.37-.89,3.22,3.22,0,0,0-1.46.36,3.35,3.35,0,0,0-1.38,1,2.09,2.09,0,0,0-.11,1.93l1.34-.63a1,1,0,0,1,0-.57.91.91,0,0,1,.56-.57,1.63,1.63,0,0,1,.64-.19.58.58,0,0,1,.57.38.39.39,0,0,1,0,.39A.84.84,0,0,1,305.43,170.07Zm.58.78a1.26,1.26,0,0,0,.25-.31l.32.68a1,1,0,0,1,0,.93,1.5,1.5,0,0,1-.73.7.75.75,0,0,1-.49.06.65.65,0,0,1-.45-.39.71.71,0,0,1,0-.72,1.84,1.84,0,0,1,.54-.5,6,6,0,0,0,.55-.45Z" transform="translate(0 0.08)"/><path class="4e7cdd2a-3b74-4f2a-8060-606c951960fd" d="M312.43,164.3l-1.33.63.35.79a1.74,1.74,0,0,0-2-.19,2.18,2.18,0,0,0-1.22,1.41,3.91,3.91,0,0,0,2,4.11,2.29,2.29,0,0,0,1.93-.1,1.78,1.78,0,0,0,.82-.69,1.75,1.75,0,0,0,.22-.77h0l.3.64a1.14,1.14,0,0,1-.25,1.59,2.29,2.29,0,0,1-1.14.35.72.72,0,0,1-.37-.27l-1.51.71a1.5,1.5,0,0,0,1.32.87,3.4,3.4,0,0,0,1.74-.37c1.14-.54,1.77-1.21,1.9-2a3,3,0,0,0-.38-1.73Zm-.61,5.36a1,1,0,0,1-1.09-.08,2.05,2.05,0,0,1-.7-.87,2.14,2.14,0,0,1-.25-1.44,1,1,0,0,1,.57-.69,1.15,1.15,0,0,1,1.11,0,2,2,0,0,1,.81,1,2.24,2.24,0,0,1,.26,1.16A1.13,1.13,0,0,1,311.82,169.66Z" transform="translate(0 0.08)"/><path class="4e7cdd2a-3b74-4f2a-8060-606c951960fd" d="M320,165.31l-1.43.68a.8.8,0,0,1-.13.58,1.18,1.18,0,0,1-.49.42,1.34,1.34,0,0,1-1,.12,1.8,1.8,0,0,1-.84-.82l3.63-1.72-.12-.25a3.3,3.3,0,0,0-2-2,2.69,2.69,0,0,0-1.89.22,2.52,2.52,0,0,0-1.62,2.12,3.93,3.93,0,0,0,2.17,3.67,2.91,2.91,0,0,0,2.18-.26,2.78,2.78,0,0,0,1.2-1A2.47,2.47,0,0,0,320,165.31Zm-4.36-.93a1.08,1.08,0,0,1,.62-.65,1.14,1.14,0,0,1,.79-.08,1.35,1.35,0,0,1,.81.69l-2.16,1a1.58,1.58,0,0,1-.1-1Z" transform="translate(0 0.08)"/><polygon class="4e7cdd2a-3b74-4f2a-8060-606c951960fd" points="202.86 149.11 206.23 156.24 207.63 155.58 205.24 150.48 210.56 154.2 212.05 153.49 208.68 146.36 207.29 147.02 209.62 151.99 204.44 148.36 202.86 149.11"/><path class="4e7cdd2a-3b74-4f2a-8060-606c951960fd" d="M213.63,152a3.3,3.3,0,0,0,3.78-1.79,3.47,3.47,0,0,0-2-4.22,3.3,3.3,0,0,0-3.78,1.79A3.46,3.46,0,0,0,213.63,152Zm.13-4.61a1.24,1.24,0,0,1,1.31.06,2.43,2.43,0,0,1,.73,1,2.3,2.3,0,0,1,.26,1.18,1.39,1.39,0,0,1-1.57,1.18,1.55,1.55,0,0,1-.51-.18,2.8,2.8,0,0,1-1-2.12,1.22,1.22,0,0,1,.78-1.07Z" transform="translate(0 0.08)"/><rect class="4e7cdd2a-3b74-4f2a-8060-606c951960fd" x="220.44" y="140.76" width="1.65" height="7.89" transform="translate(-40.62 108.57) rotate(-25.31)"/><path class="4e7cdd2a-3b74-4f2a-8060-606c951960fd" d="M224.17,142.16l-.37-.78-1.33.63,2.5,5.29,1.39-.66-1.52-3.22a1.4,1.4,0,0,1-.15-.85.87.87,0,0,1,.53-.59.8.8,0,0,1,.91,0,1.93,1.93,0,0,1,.43.66l1.5,3.18,1.39-.66L228,142a1.41,1.41,0,0,1-.15-.9,1,1,0,0,1,.58-.63.79.79,0,0,1,.67,0,1.37,1.37,0,0,1,.58.7l1.52,3.21,1.39-.66-1.73-3.66a1.85,1.85,0,0,0-1.13-1.06,2.11,2.11,0,0,0-1.54.16,1.66,1.66,0,0,0-.81.78,2.64,2.64,0,0,0-.2.73,2.26,2.26,0,0,0-.91-.36,2,2,0,0,0-2.1,1.85Z" transform="translate(0 0.08)"/><path class="4e7cdd2a-3b74-4f2a-8060-606c951960fd" d="M235.14,142.66a2.48,2.48,0,0,0,1-.78,2.79,2.79,0,0,0,.38-.8,3,3,0,0,0,.42.57l1.5-.71-.1-.21a.44.44,0,0,1-.33-.11,1.65,1.65,0,0,1-.37-.57l-1.35-2.86a1.46,1.46,0,0,0-1.37-.9,3.22,3.22,0,0,0-1.46.36,3.35,3.35,0,0,0-1.38,1,2.09,2.09,0,0,0-.11,1.93l1.34-.63a1,1,0,0,1-.05-.57.91.91,0,0,1,.56-.57,1.63,1.63,0,0,1,.64-.19.58.58,0,0,1,.57.38.39.39,0,0,1,0,.39.84.84,0,0,1-.28.25l-1.16.78a2.11,2.11,0,0,0-.88,1.05,1.77,1.77,0,0,0,.13,1.37,1.62,1.62,0,0,0,1.07.94A1.86,1.86,0,0,0,235.14,142.66Zm-1-2.25a1.84,1.84,0,0,1,.54-.5,4.44,4.44,0,0,0,.59-.46,1.42,1.42,0,0,0,.25-.3l.32.68a1,1,0,0,1,0,.93,1.5,1.5,0,0,1-.73.7.75.75,0,0,1-.49.06.65.65,0,0,1-.45-.39.72.72,0,0,1,0-.71Z" transform="translate(0 0.08)"/><path class="4e7cdd2a-3b74-4f2a-8060-606c951960fd" d="M242.23,140.49a1.52,1.52,0,0,1-.86.2.72.72,0,0,1-.37-.27l-1.51.71a1.5,1.5,0,0,0,1.32.87,3.4,3.4,0,0,0,1.74-.37c1.14-.54,1.77-1.21,1.9-2a3,3,0,0,0-.38-1.73l-2.37-5-1.33.63.35.79a1.74,1.74,0,0,0-2-.19,2.18,2.18,0,0,0-1.22,1.41,3.91,3.91,0,0,0,2,4.11,2.29,2.29,0,0,0,1.93-.1,1.78,1.78,0,0,0,.82-.69,1.75,1.75,0,0,0,.22-.77h0l.3.64a1.13,1.13,0,0,1-.54,1.76Zm-1.14-2.21a1,1,0,0,1-1.09-.08,2.05,2.05,0,0,1-.7-.87,2.14,2.14,0,0,1-.25-1.44,1,1,0,0,1,.57-.68,1.15,1.15,0,0,1,1.11,0,2,2,0,0,1,.81,1,2.24,2.24,0,0,1,.26,1.16A1.12,1.12,0,0,1,241.09,138.28Z" transform="translate(0 0.08)"/><path class="4e7cdd2a-3b74-4f2a-8060-606c951960fd" d="M248.84,132.93a3.3,3.3,0,0,0-2-2,2.69,2.69,0,0,0-1.89.22,2.52,2.52,0,0,0-1.62,2.11,3.93,3.93,0,0,0,2.17,3.67,2.91,2.91,0,0,0,2.18-.26,2.78,2.78,0,0,0,1.2-1,2.45,2.45,0,0,0,.33-1.77l-1.43.68a.77.77,0,0,1-.13.59,1.15,1.15,0,0,1-.49.41,1.34,1.34,0,0,1-1,.12,1.8,1.8,0,0,1-.84-.82l3.63-1.72Zm-3.9,1a1.56,1.56,0,0,1-.06-1,1.08,1.08,0,0,1,.62-.65,1.14,1.14,0,0,1,.79-.08,1.35,1.35,0,0,1,.81.69Z" transform="translate(0 0.08)"/><polygon class="4e7cdd2a-3b74-4f2a-8060-606c951960fd" points="271.59 116.61 274.96 123.74 276.35 123.08 273.97 117.98 279.29 121.69 280.78 120.98 277.41 113.85 276.02 114.51 278.35 119.49 273.16 115.86 271.59 116.61"/><path class="4e7cdd2a-3b74-4f2a-8060-606c951960fd" d="M284.14,113.5a3.14,3.14,0,0,0-1.79,6,3.3,3.3,0,0,0,3.78-1.79,3.46,3.46,0,0,0-2-4.22Zm-.13,4.61a1.24,1.24,0,0,1-1.31-.06,2.8,2.8,0,0,1-1-2.12,1.39,1.39,0,0,1,1.57-1.18,1.55,1.55,0,0,1,.51.18,2.43,2.43,0,0,1,.73.95,2.3,2.3,0,0,1,.26,1.18,1.21,1.21,0,0,1-.77,1Z" transform="translate(0 0.08)"/><rect class="4e7cdd2a-3b74-4f2a-8060-606c951960fd" x="289.17" y="108.24" width="1.65" height="7.89" transform="translate(-20.12 134.83) rotate(-25.31)"/><path class="4e7cdd2a-3b74-4f2a-8060-606c951960fd" d="M298.41,106.49a2.11,2.11,0,0,0-1.54.16,1.66,1.66,0,0,0-.81.78,2.64,2.64,0,0,0-.2.73,2.26,2.26,0,0,0-.91-.36,2.1,2.1,0,0,0-1.85,1,2.06,2.06,0,0,0-.2.81l-.37-.78-1.33.63,2.5,5.29,1.39-.66-1.52-3.22a1.4,1.4,0,0,1-.15-.85.87.87,0,0,1,.53-.59.8.8,0,0,1,.91,0,1.93,1.93,0,0,1,.43.66l1.5,3.18,1.39-.66-1.5-3.17a1.41,1.41,0,0,1-.15-.9,1,1,0,0,1,.58-.63.72.72,0,0,1,.67,0,1.37,1.37,0,0,1,.58.7l1.52,3.21,1.39-.66-1.73-3.66A1.85,1.85,0,0,0,298.41,106.49Z" transform="translate(0 0.08)"/><path class="4e7cdd2a-3b74-4f2a-8060-606c951960fd" d="M303.43,106.18l-1.16.78a2.11,2.11,0,0,0-.88,1.05,1.77,1.77,0,0,0,.13,1.37,1.62,1.62,0,0,0,1.07.94,1.86,1.86,0,0,0,1.27-.16,2.48,2.48,0,0,0,1-.78,2.79,2.79,0,0,0,.38-.8,3,3,0,0,0,.42.57l1.5-.71-.1-.21a.44.44,0,0,1-.33-.11,1.81,1.81,0,0,1-.37-.57L305,104.68a1.45,1.45,0,0,0-1.37-.89,3.22,3.22,0,0,0-1.46.36,3.35,3.35,0,0,0-1.38,1,2.09,2.09,0,0,0-.11,1.93l1.34-.63a1,1,0,0,1,0-.57.91.91,0,0,1,.56-.57,1.63,1.63,0,0,1,.64-.19.58.58,0,0,1,.57.38.39.39,0,0,1,0,.39A.86.86,0,0,1,303.43,106.18Zm.58.78a1.26,1.26,0,0,0,.25-.31l.32.68a1,1,0,0,1,0,.93,1.5,1.5,0,0,1-.73.7.75.75,0,0,1-.49.06.65.65,0,0,1-.45-.39.71.71,0,0,1,0-.72,1.84,1.84,0,0,1,.54-.5A4.36,4.36,0,0,0,304,107Z" transform="translate(0 0.08)"/><path class="4e7cdd2a-3b74-4f2a-8060-606c951960fd" d="M309.45,101.83a1.74,1.74,0,0,0-2-.19,2.18,2.18,0,0,0-1.22,1.41,3.91,3.91,0,0,0,2,4.11,2.29,2.29,0,0,0,1.93-.1,1.78,1.78,0,0,0,.82-.69,1.75,1.75,0,0,0,.22-.77h0l.3.64a1.14,1.14,0,0,1-.21,1.6,1.18,1.18,0,0,1-.29.16,1.52,1.52,0,0,1-.86.2.72.72,0,0,1-.37-.27l-1.51.71a1.5,1.5,0,0,0,1.32.87,3.4,3.4,0,0,0,1.74-.37c1.14-.54,1.77-1.21,1.9-2a3,3,0,0,0-.38-1.73l-2.37-5-1.33.63Zm.83,1.85a2.24,2.24,0,0,1,.26,1.16,1.13,1.13,0,0,1-.71.93,1,1,0,0,1-1.09-.08,2.05,2.05,0,0,1-.7-.87,2.14,2.14,0,0,1-.25-1.44,1,1,0,0,1,.57-.69,1.15,1.15,0,0,1,1.11,0,2,2,0,0,1,.8,1Z" transform="translate(0 0.08)"/><path class="4e7cdd2a-3b74-4f2a-8060-606c951960fd" d="M314.26,104.47a2.91,2.91,0,0,0,2.18-.26,2.78,2.78,0,0,0,1.2-1,2.45,2.45,0,0,0,.33-1.77l-1.43.68a.8.8,0,0,1-.13.58,1.18,1.18,0,0,1-.49.42,1.34,1.34,0,0,1-1,.12,1.8,1.8,0,0,1-.84-.82l3.63-1.72-.12-.25a3.3,3.3,0,0,0-2-2,2.69,2.69,0,0,0-1.89.22,2.52,2.52,0,0,0-1.62,2.12,3.94,3.94,0,0,0,2.18,3.68Zm-.66-4a1.08,1.08,0,0,1,.62-.65,1.14,1.14,0,0,1,.79-.08,1.35,1.35,0,0,1,.81.69l-2.16,1a1.51,1.51,0,0,1-.06-.94Z" transform="translate(0 0.08)"/><polygon class="4e7cdd2a-3b74-4f2a-8060-606c951960fd" points="18.45 56.72 21.82 63.85 23.22 63.2 20.83 58.1 26.15 61.81 27.64 61.1 24.27 53.97 22.88 54.63 25.21 59.61 20.03 55.98 18.45 56.72"/><path class="4e7cdd2a-3b74-4f2a-8060-606c951960fd" d="M27.22,55.41a3.08,3.08,0,0,0,4.2,4A3,3,0,0,0,33,57.83a3.46,3.46,0,0,0-2-4.22,3.3,3.3,0,0,0-3.78,1.79Zm2.12-.4a1.22,1.22,0,0,1,1.31.06,2.43,2.43,0,0,1,.73,1,2.3,2.3,0,0,1,.26,1.18,1.39,1.39,0,0,1-1.57,1.18,1.55,1.55,0,0,1-.51-.18,2.8,2.8,0,0,1-1-2.12A1.21,1.21,0,0,1,29.35,55Z" transform="translate(0 0.08)"/><rect class="4e7cdd2a-3b74-4f2a-8060-606c951960fd" x="36.02" y="48.36" width="1.65" height="7.89" transform="translate(-18.83 20.86) rotate(-25.31)"/><path class="4e7cdd2a-3b74-4f2a-8060-606c951960fd" d="M44,48.09a.72.72,0,0,1,.67,0,1.37,1.37,0,0,1,.58.7L46.74,52l1.39-.66L46.4,47.68a1.83,1.83,0,0,0-1.13-1.06,2.11,2.11,0,0,0-1.54.16,1.66,1.66,0,0,0-.81.78,2.64,2.64,0,0,0-.2.73,2.26,2.26,0,0,0-.91-.36A2.1,2.1,0,0,0,40,49a2.06,2.06,0,0,0-.2.81L39.39,49l-1.33.63,2.5,5.29L42,54.26,40.43,51a1.4,1.4,0,0,1-.15-.85.87.87,0,0,1,.53-.59.8.8,0,0,1,.91,0,1.93,1.93,0,0,1,.43.66l1.5,3.18L45,52.79l-1.5-3.17a1.41,1.41,0,0,1-.15-.9A1,1,0,0,1,44,48.09Z" transform="translate(0 0.08)"/><path class="4e7cdd2a-3b74-4f2a-8060-606c951960fd" d="M53.57,48.24a1.81,1.81,0,0,1-.37-.57L51.85,44.8a1.45,1.45,0,0,0-1.37-.89,3.22,3.22,0,0,0-1.46.36,3.35,3.35,0,0,0-1.38,1,2.09,2.09,0,0,0-.11,1.93l1.34-.63a1,1,0,0,1,0-.57.91.91,0,0,1,.56-.57,1.63,1.63,0,0,1,.64-.19.58.58,0,0,1,.57.38.39.39,0,0,1,0,.39.84.84,0,0,1-.28.25L49.15,47a2.11,2.11,0,0,0-.88,1.05,1.77,1.77,0,0,0,.13,1.37,1.62,1.62,0,0,0,1.07.94,1.86,1.86,0,0,0,1.27-.16,2.48,2.48,0,0,0,1-.78,2.79,2.79,0,0,0,.38-.8,3,3,0,0,0,.42.57l1.5-.71-.1-.21A.44.44,0,0,1,53.57,48.24Zm-2.15.14a1.5,1.5,0,0,1-.73.7.75.75,0,0,1-.49.06.65.65,0,0,1-.45-.39.71.71,0,0,1,0-.72,1.84,1.84,0,0,1,.54-.5,4.44,4.44,0,0,0,.59-.46,1.26,1.26,0,0,0,.25-.31l.32.68A1,1,0,0,1,51.42,48.38Z" transform="translate(0 0.08)"/><path class="4e7cdd2a-3b74-4f2a-8060-606c951960fd" d="M57.29,40.53,56,41.16l.35.79a1.74,1.74,0,0,0-2-.19,2.18,2.18,0,0,0-1.22,1.41,3.91,3.91,0,0,0,2,4.11,2.29,2.29,0,0,0,1.93-.1,1.78,1.78,0,0,0,.82-.69,1.75,1.75,0,0,0,.22-.77h0l.3.64A1.14,1.14,0,0,1,58.15,48,2.29,2.29,0,0,1,57,48.3a.72.72,0,0,1-.37-.27l-1.51.71a1.5,1.5,0,0,0,1.32.87,3.4,3.4,0,0,0,1.74-.37c1.14-.54,1.77-1.21,1.9-2a3,3,0,0,0-.38-1.73Zm-.61,5.36a1,1,0,0,1-1.09-.08,2.05,2.05,0,0,1-.7-.87,2.14,2.14,0,0,1-.25-1.44,1,1,0,0,1,.57-.69,1.15,1.15,0,0,1,1.11,0,2,2,0,0,1,.81,1A2.15,2.15,0,0,1,57.39,45,1.14,1.14,0,0,1,56.68,45.89Z" transform="translate(0 0.08)"/><path class="4e7cdd2a-3b74-4f2a-8060-606c951960fd" d="M63.39,42.22a.8.8,0,0,1-.13.58,1.18,1.18,0,0,1-.49.42,1.34,1.34,0,0,1-1,.12,1.8,1.8,0,0,1-.84-.82l3.63-1.72-.12-.25a3.3,3.3,0,0,0-2-2,2.69,2.69,0,0,0-1.89.22,2.52,2.52,0,0,0-1.62,2.12,3.93,3.93,0,0,0,2.17,3.67,2.91,2.91,0,0,0,2.18-.26,2.78,2.78,0,0,0,1.2-1,2.45,2.45,0,0,0,.33-1.77Zm-2.93-1.61a1.08,1.08,0,0,1,.62-.65,1.14,1.14,0,0,1,.79-.08,1.35,1.35,0,0,1,.81.69l-2.16,1a1.5,1.5,0,0,1-.05-1Z" transform="translate(0 0.08)"/><polygon class="4e7cdd2a-3b74-4f2a-8060-606c951960fd" points="105.72 24.7 103.33 19.6 108.65 23.31 110.14 22.6 106.77 15.47 105.38 16.13 107.71 21.11 102.53 17.48 100.95 18.22 104.33 25.35 105.72 24.7"/><path class="4e7cdd2a-3b74-4f2a-8060-606c951960fd" d="M111.72,21.12a3.3,3.3,0,0,0,3.78-1.79,3,3,0,0,0-.18-2.49,3,3,0,0,0-5.62.15,3,3,0,0,0,.21,2.41A3,3,0,0,0,111.72,21.12Zm.13-4.61a1.22,1.22,0,0,1,1.31.06,2.43,2.43,0,0,1,.73.95,2.3,2.3,0,0,1,.26,1.18,1.39,1.39,0,0,1-1.57,1.18,1.55,1.55,0,0,1-.51-.18,2.43,2.43,0,0,1-.73-.95,2.3,2.3,0,0,1-.26-1.18A1.22,1.22,0,0,1,111.85,16.51Z" transform="translate(0 0.08)"/><rect class="4e7cdd2a-3b74-4f2a-8060-606c951960fd" x="118.53" y="9.87" width="1.65" height="7.89" transform="translate(5.55 52.44) rotate(-25.31)"/><path class="4e7cdd2a-3b74-4f2a-8060-606c951960fd" d="M124.45,15.76l-1.52-3.22a1.4,1.4,0,0,1-.15-.85.87.87,0,0,1,.53-.59.8.8,0,0,1,.91,0,1.93,1.93,0,0,1,.43.66l1.5,3.18,1.39-.66L126,11.12a1.41,1.41,0,0,1-.15-.9,1,1,0,0,1,.58-.63.72.72,0,0,1,.67,0,1.37,1.37,0,0,1,.58.7l1.52,3.21,1.39-.66-1.73-3.66a1.85,1.85,0,0,0-1.13-1.06,2.11,2.11,0,0,0-1.54.16,1.66,1.66,0,0,0-.81.78,2.64,2.64,0,0,0-.2.73,2.26,2.26,0,0,0-.91-.36,2.1,2.1,0,0,0-1.85,1,2.06,2.06,0,0,0-.2.81l-.37-.78-1.33.63,2.5,5.29Z" transform="translate(0 0.08)"/><path class="4e7cdd2a-3b74-4f2a-8060-606c951960fd" d="M131.37,8.1a1,1,0,0,1-.05-.57.91.91,0,0,1,.56-.57,1.63,1.63,0,0,1,.64-.19.58.58,0,0,1,.57.38.39.39,0,0,1,0,.39.84.84,0,0,1-.28.25l-1.16.78a2.11,2.11,0,0,0-.88,1A1.77,1.77,0,0,0,130.9,11a1.62,1.62,0,0,0,1.07.94,1.86,1.86,0,0,0,1.27-.16,2.48,2.48,0,0,0,1-.78,2.79,2.79,0,0,0,.38-.8,3,3,0,0,0,.42.57l1.5-.71-.1-.21a.44.44,0,0,1-.33-.11,1.81,1.81,0,0,1-.37-.57L134.35,6.3A1.46,1.46,0,0,0,133,5.4a3.22,3.22,0,0,0-1.46.36,3.35,3.35,0,0,0-1.38,1,2.08,2.08,0,0,0-.14,2Zm2.25.17.32.68a1,1,0,0,1,0,.93,1.5,1.5,0,0,1-.73.7.75.75,0,0,1-.49.06.65.65,0,0,1-.45-.39.71.71,0,0,1,0-.72,1.84,1.84,0,0,1,.54-.5,4.44,4.44,0,0,0,.59-.46A1.29,1.29,0,0,0,133.62,8.27Z" transform="translate(0 0.08)"/><path class="4e7cdd2a-3b74-4f2a-8060-606c951960fd" d="M137.56,8.78a2.29,2.29,0,0,0,1.93-.1A1.85,1.85,0,0,0,140.3,8a1.75,1.75,0,0,0,.22-.77h0l.3.64a1.14,1.14,0,0,1-.25,1.59,2.29,2.29,0,0,1-1.14.35.72.72,0,0,1-.37-.27l-1.51.71a1.5,1.5,0,0,0,1.32.87,3.4,3.4,0,0,0,1.74-.37c1.14-.54,1.77-1.21,1.9-2A3,3,0,0,0,142.16,7l-2.37-5-1.33.63.35.8a1.74,1.74,0,0,0-2-.19,2.18,2.18,0,0,0-1.22,1.41A3.26,3.26,0,0,0,135.91,7,3.27,3.27,0,0,0,137.56,8.78ZM137.14,5a1,1,0,0,1,.57-.69,1.15,1.15,0,0,1,1.11,0,2,2,0,0,1,.81,1,2.24,2.24,0,0,1,.26,1.16,1.13,1.13,0,0,1-.71.93,1,1,0,0,1-1.09-.08,2.05,2.05,0,0,1-.7-.87A2.16,2.16,0,0,1,137.14,5Z" transform="translate(0 0.08)"/><path class="4e7cdd2a-3b74-4f2a-8060-606c951960fd" d="M143.62,6.09a2.91,2.91,0,0,0,2.18-.26,2.78,2.78,0,0,0,1.2-1A2.5,2.5,0,0,0,147.33,3l-1.43.68a.8.8,0,0,1-.13.58,1.18,1.18,0,0,1-.49.42,1.34,1.34,0,0,1-1,.12,1.8,1.8,0,0,1-.84-.82L147,2.3l-.07-.3a3.3,3.3,0,0,0-2-2A2.69,2.69,0,0,0,143,.22a2.52,2.52,0,0,0-1.62,2.11,3.35,3.35,0,0,0,.34,1.76A3.34,3.34,0,0,0,143.62,6.09Zm-.66-4a1.08,1.08,0,0,1,.62-.65,1.14,1.14,0,0,1,.79-.08,1.35,1.35,0,0,1,.81.69l-2.16,1a1.59,1.59,0,0,1,0-.94Z" transform="translate(0 0.08)"/><polygon class="4e7cdd2a-3b74-4f2a-8060-606c951960fd" points="18.22 24.7 15.83 19.6 21.15 23.31 22.64 22.6 19.27 15.47 17.88 16.13 20.21 21.11 15.03 17.48 13.45 18.22 16.82 25.35 18.22 24.7"/><path class="4e7cdd2a-3b74-4f2a-8060-606c951960fd" d="M24.22,21.12A3.3,3.3,0,0,0,28,19.33a3,3,0,0,0-.18-2.49A3,3,0,0,0,26,15.12a3.3,3.3,0,0,0-3.78,1.79,3,3,0,0,0,.18,2.49A3,3,0,0,0,24.22,21.12Zm.13-4.61a1.24,1.24,0,0,1,1.31.06,2.43,2.43,0,0,1,.73.95,2.3,2.3,0,0,1,.26,1.18,1.39,1.39,0,0,1-1.57,1.18,1.55,1.55,0,0,1-.51-.18,2.43,2.43,0,0,1-.73-.95,2.3,2.3,0,0,1-.26-1.18A1.22,1.22,0,0,1,24.35,16.51Z" transform="translate(0 0.08)"/><rect class="4e7cdd2a-3b74-4f2a-8060-606c951960fd" x="31.03" y="9.86" width="1.65" height="7.89" transform="translate(-2.84 15.03) rotate(-25.31)"/><path class="4e7cdd2a-3b74-4f2a-8060-606c951960fd" d="M37,15.76l-1.52-3.22a1.4,1.4,0,0,1-.15-.85.87.87,0,0,1,.53-.59.8.8,0,0,1,.91,0,1.93,1.93,0,0,1,.43.66L38.65,15,40,14.29l-1.5-3.17a1.4,1.4,0,0,1-.15-.9A1,1,0,0,1,39,9.59a.79.79,0,0,1,.67,0,1.37,1.37,0,0,1,.58.7l1.52,3.21,1.39-.66L41.41,9.17a1.85,1.85,0,0,0-1.13-1.06,2.11,2.11,0,0,0-1.54.16,1.66,1.66,0,0,0-.81.78,2.64,2.64,0,0,0-.2.73,2.26,2.26,0,0,0-.91-.36,2.1,2.1,0,0,0-1.85,1,2.06,2.06,0,0,0-.2.81l-.37-.78-1.33.63,2.5,5.29Z" transform="translate(0 0.08)"/><path class="4e7cdd2a-3b74-4f2a-8060-606c951960fd" d="M43.87,8.1a1,1,0,0,1,0-.57A.92.92,0,0,1,44.38,7,1.56,1.56,0,0,1,45,6.77a.58.58,0,0,1,.57.38.39.39,0,0,1,0,.39.84.84,0,0,1-.28.25l-1.16.78a2.11,2.11,0,0,0-.88,1A1.79,1.79,0,0,0,43.39,11a1.62,1.62,0,0,0,1.07.94,1.86,1.86,0,0,0,1.27-.16,2.48,2.48,0,0,0,1-.78,2.79,2.79,0,0,0,.38-.8,3,3,0,0,0,.42.57l1.5-.71-.1-.21a.44.44,0,0,1-.33-.11,1.65,1.65,0,0,1-.37-.57L46.85,6.3a1.46,1.46,0,0,0-1.37-.9A3.18,3.18,0,0,0,44,5.77a3.35,3.35,0,0,0-1.38,1,2.09,2.09,0,0,0-.11,1.93Zm2.25.17.32.68a1,1,0,0,1,0,.93,1.5,1.5,0,0,1-.73.7.75.75,0,0,1-.49.06.65.65,0,0,1-.45-.39.71.71,0,0,1,0-.72,1.84,1.84,0,0,1,.54-.5,4.44,4.44,0,0,0,.59-.46A1.29,1.29,0,0,0,46.12,8.27Z" transform="translate(0 0.08)"/><path class="4e7cdd2a-3b74-4f2a-8060-606c951960fd" d="M50.06,8.78A2.27,2.27,0,0,0,52,8.68,1.77,1.77,0,0,0,52.8,8a1.65,1.65,0,0,0,.2-.78h0l.3.64a1.14,1.14,0,0,1-.25,1.59,2.29,2.29,0,0,1-1.14.35.72.72,0,0,1-.37-.27L50,10.25a1.5,1.5,0,0,0,1.32.87,3.51,3.51,0,0,0,1.74-.37c1.14-.54,1.77-1.21,1.9-2A3,3,0,0,0,54.66,7L52.29,2,51,2.66l.35.8a1.74,1.74,0,0,0-2-.19,2.2,2.2,0,0,0-1.25,1.4A3.26,3.26,0,0,0,48.41,7,3.27,3.27,0,0,0,50.06,8.78ZM49.64,5a1,1,0,0,1,.57-.69,1.15,1.15,0,0,1,1.11,0,2,2,0,0,1,.81,1,2.24,2.24,0,0,1,.26,1.16,1.13,1.13,0,0,1-.71.93,1,1,0,0,1-1.09-.08,2.05,2.05,0,0,1-.7-.87A2.16,2.16,0,0,1,49.64,5Z" transform="translate(0 0.08)"/><path class="4e7cdd2a-3b74-4f2a-8060-606c951960fd" d="M56.12,6.09a2.91,2.91,0,0,0,2.18-.26,2.78,2.78,0,0,0,1.2-1A2.5,2.5,0,0,0,59.83,3l-1.43.68a.77.77,0,0,1-.13.59,1.15,1.15,0,0,1-.49.41,1.34,1.34,0,0,1-1,.12,1.76,1.76,0,0,1-.86-.8l3.63-1.7L59.43,2a3.3,3.3,0,0,0-2-2,2.69,2.69,0,0,0-1.89.22,2.52,2.52,0,0,0-1.62,2.11,3.35,3.35,0,0,0,.34,1.76A3.34,3.34,0,0,0,56.12,6.09Zm-.66-4a1.08,1.08,0,0,1,.62-.65,1.14,1.14,0,0,1,.79-.08,1.35,1.35,0,0,1,.81.69l-2.16,1a1.59,1.59,0,0,1-.05-.94Z" transform="translate(0 0.08)"/><polygon class="4e7cdd2a-3b74-4f2a-8060-606c951960fd" points="199.63 97.58 197.24 92.48 202.56 96.19 204.05 95.49 200.68 88.36 199.29 89.02 201.62 93.99 196.44 90.36 194.86 91.11 198.23 98.24 199.63 97.58"/><path class="4e7cdd2a-3b74-4f2a-8060-606c951960fd" d="M205.63,94a3.3,3.3,0,0,0,3.78-1.79,3.47,3.47,0,0,0-2-4.22,3.3,3.3,0,0,0-3.78,1.79A3.46,3.46,0,0,0,205.63,94Zm.13-4.61a1.24,1.24,0,0,1,1.31.06,2.43,2.43,0,0,1,.73,1,2.3,2.3,0,0,1,.26,1.18,1.39,1.39,0,0,1-1.57,1.18,1.55,1.55,0,0,1-.51-.18,2.8,2.8,0,0,1-1-2.12,1.22,1.22,0,0,1,.78-1.07Z" transform="translate(0 0.08)"/><rect class="4e7cdd2a-3b74-4f2a-8060-606c951960fd" x="212.44" y="82.75" width="1.65" height="7.89" transform="translate(-16.59 99.58) rotate(-25.31)"/><path class="4e7cdd2a-3b74-4f2a-8060-606c951960fd" d="M218.36,88.64l-1.52-3.22a1.4,1.4,0,0,1-.15-.85.87.87,0,0,1,.53-.59.8.8,0,0,1,.91,0,1.93,1.93,0,0,1,.43.66l1.5,3.18,1.39-.66L220,84a1.41,1.41,0,0,1-.15-.9,1,1,0,0,1,.58-.63.79.79,0,0,1,.67,0,1.37,1.37,0,0,1,.58.7l1.52,3.21,1.39-.66-1.73-3.66A1.86,1.86,0,0,0,221.68,81a2.11,2.11,0,0,0-1.54.16,1.66,1.66,0,0,0-.81.78,2.64,2.64,0,0,0-.2.73,2.26,2.26,0,0,0-.91-.36,2.1,2.1,0,0,0-1.85,1,2.06,2.06,0,0,0-.2.81l-.37-.78-1.33.63L217,89.3Z" transform="translate(0 0.08)"/><path class="4e7cdd2a-3b74-4f2a-8060-606c951960fd" d="M226.7,80.68l-1.16.78a2.11,2.11,0,0,0-.88,1.05,1.77,1.77,0,0,0,.13,1.37,1.62,1.62,0,0,0,1.07.94,1.86,1.86,0,0,0,1.27-.16,2.48,2.48,0,0,0,1-.78,2.79,2.79,0,0,0,.38-.8,3,3,0,0,0,.42.57l1.5-.71-.1-.21a.44.44,0,0,1-.33-.11,1.65,1.65,0,0,1-.37-.57l-1.35-2.86a1.46,1.46,0,0,0-1.37-.9,3.22,3.22,0,0,0-1.46.36,3.35,3.35,0,0,0-1.38,1,2.09,2.09,0,0,0-.11,1.93L225.3,81a1,1,0,0,1-.05-.57.91.91,0,0,1,.56-.57,1.63,1.63,0,0,1,.64-.19A.57.57,0,0,1,227,80a.39.39,0,0,1,0,.39A.83.83,0,0,1,226.7,80.68Zm.58.78a1.42,1.42,0,0,0,.25-.3l.32.68a1,1,0,0,1,0,.93,1.5,1.5,0,0,1-.73.7.75.75,0,0,1-.49.06.65.65,0,0,1-.45-.39.71.71,0,0,1,0-.72,1.84,1.84,0,0,1,.54-.5A4.15,4.15,0,0,0,227.28,81.46Z" transform="translate(0 0.08)"/><path class="4e7cdd2a-3b74-4f2a-8060-606c951960fd" d="M232.72,76.34a1.74,1.74,0,0,0-2-.19,2.18,2.18,0,0,0-1.22,1.41,3.91,3.91,0,0,0,2,4.11,2.29,2.29,0,0,0,1.93-.1,1.78,1.78,0,0,0,.82-.69,1.75,1.75,0,0,0,.22-.77h0l.3.64a1.13,1.13,0,0,1-.27,1.59.94.94,0,0,1-.26.14,1.52,1.52,0,0,1-.86.2.72.72,0,0,1-.37-.27l-1.51.71a1.5,1.5,0,0,0,1.32.87,3.4,3.4,0,0,0,1.74-.37c1.14-.54,1.77-1.21,1.9-2a3,3,0,0,0-.38-1.73l-2.37-5-1.33.63Zm.83,1.85a2.24,2.24,0,0,1,.26,1.16,1.13,1.13,0,0,1-.71.93,1,1,0,0,1-1.1-.08,2.05,2.05,0,0,1-.7-.87,2.14,2.14,0,0,1-.25-1.44,1,1,0,0,1,.57-.68,1.15,1.15,0,0,1,1.11,0,2,2,0,0,1,.81,1Z" transform="translate(0 0.08)"/><path class="4e7cdd2a-3b74-4f2a-8060-606c951960fd" d="M240.84,74.93a3.3,3.3,0,0,0-2-2,2.69,2.69,0,0,0-1.89.22,2.52,2.52,0,0,0-1.62,2.11,4.06,4.06,0,0,0,2.2,3.74,2.91,2.91,0,0,0,2.18-.26,2.78,2.78,0,0,0,1.2-1,2.45,2.45,0,0,0,.33-1.77l-1.43.68a.77.77,0,0,1-.13.59,1.15,1.15,0,0,1-.49.41,1.34,1.34,0,0,1-1,.12,1.8,1.8,0,0,1-.84-.82L241,75.18Zm-3.9,1a1.56,1.56,0,0,1-.06-1,1.08,1.08,0,0,1,.62-.65,1.14,1.14,0,0,1,.79-.08,1.35,1.35,0,0,1,.81.69Z" transform="translate(0 0.08)"/><polygon class="4e7cdd2a-3b74-4f2a-8060-606c951960fd" points="263.59 58.6 266.96 65.74 268.35 65.08 265.97 59.98 271.29 63.69 272.78 62.98 269.41 55.85 268.02 56.51 270.35 61.49 265.16 57.86 263.59 58.6"/><path class="4e7cdd2a-3b74-4f2a-8060-606c951960fd" d="M274.36,61.5a3.3,3.3,0,0,0,3.78-1.79,3.46,3.46,0,0,0-2-4.22,3,3,0,0,0-3.6,4.28A3,3,0,0,0,274.36,61.5Zm.13-4.61a1.22,1.22,0,0,1,1.31.06,2.43,2.43,0,0,1,.73.95,2.3,2.3,0,0,1,.26,1.18,1.39,1.39,0,0,1-1.57,1.18,1.55,1.55,0,0,1-.51-.18,2.8,2.8,0,0,1-1-2.12A1.22,1.22,0,0,1,274.49,56.89Z" transform="translate(0 0.08)"/><rect class="4e7cdd2a-3b74-4f2a-8060-606c951960fd" x="281.18" y="50.26" width="1.65" height="7.89" transform="translate(3.9 125.85) rotate(-25.31)"/><path class="4e7cdd2a-3b74-4f2a-8060-606c951960fd" d="M287.09,56.14l-1.52-3.22a1.4,1.4,0,0,1-.15-.85.87.87,0,0,1,.53-.59.8.8,0,0,1,.91,0,1.93,1.93,0,0,1,.43.66l1.5,3.18,1.39-.66-1.5-3.17a1.41,1.41,0,0,1-.15-.9,1,1,0,0,1,.58-.63.72.72,0,0,1,.67,0,1.37,1.37,0,0,1,.58.7l1.52,3.21,1.39-.66-1.73-3.66a1.83,1.83,0,0,0-1.13-1.06,2.11,2.11,0,0,0-1.54.16,1.66,1.66,0,0,0-.81.78,2.64,2.64,0,0,0-.2.73,2.26,2.26,0,0,0-.91-.36,2.1,2.1,0,0,0-1.85,1,2.06,2.06,0,0,0-.2.81l-.37-.78-1.33.63,2.5,5.29Z" transform="translate(0 0.08)"/><path class="4e7cdd2a-3b74-4f2a-8060-606c951960fd" d="M294,48.48a1,1,0,0,1-.05-.57.91.91,0,0,1,.56-.57,1.63,1.63,0,0,1,.64-.19.58.58,0,0,1,.57.38.39.39,0,0,1,0,.39.84.84,0,0,1-.28.25l-1.16.78a2.11,2.11,0,0,0-.88,1,1.77,1.77,0,0,0,.13,1.37,1.62,1.62,0,0,0,1.07.94,1.86,1.86,0,0,0,1.27-.16,2.48,2.48,0,0,0,1-.78,2.79,2.79,0,0,0,.38-.8,3,3,0,0,0,.42.57l1.5-.71-.1-.21a.44.44,0,0,1-.33-.11,1.81,1.81,0,0,1-.37-.57L297,46.68a1.45,1.45,0,0,0-1.37-.89,3.22,3.22,0,0,0-1.46.36,3.35,3.35,0,0,0-1.38,1,2.09,2.09,0,0,0-.11,1.93Zm2.25.17.32.68a1,1,0,0,1,0,.93,1.5,1.5,0,0,1-.73.7.75.75,0,0,1-.49.06.65.65,0,0,1-.45-.39.71.71,0,0,1,0-.72,1.84,1.84,0,0,1,.54-.5A4.46,4.46,0,0,0,296,49,1.24,1.24,0,0,0,296.25,48.65Z" transform="translate(0 0.08)"/><path class="4e7cdd2a-3b74-4f2a-8060-606c951960fd" d="M300.19,49.16a2.29,2.29,0,0,0,1.93-.1,1.78,1.78,0,0,0,.82-.69,1.75,1.75,0,0,0,.22-.77h0l.3.64a1.13,1.13,0,0,1-.19,1.6A.92.92,0,0,1,303,50a1.52,1.52,0,0,1-.86.2.72.72,0,0,1-.37-.27l-1.51.71a1.5,1.5,0,0,0,1.32.87,3.4,3.4,0,0,0,1.74-.37c1.14-.54,1.77-1.21,1.9-2a3,3,0,0,0-.38-1.73l-2.37-5-1.33.63.35.79a1.74,1.74,0,0,0-2-.19A2.19,2.19,0,0,0,298.24,45a3.91,3.91,0,0,0,2,4.11Zm-.42-3.78a1,1,0,0,1,.57-.69,1.15,1.15,0,0,1,1.11,0,2,2,0,0,1,.81,1,2.24,2.24,0,0,1,.26,1.16,1.13,1.13,0,0,1-.71.93,1,1,0,0,1-1.09-.08,2.05,2.05,0,0,1-.7-.87,2.15,2.15,0,0,1-.24-1.45Z" transform="translate(0 0.08)"/><path class="4e7cdd2a-3b74-4f2a-8060-606c951960fd" d="M306.26,46.47a2.91,2.91,0,0,0,2.18-.26,2.78,2.78,0,0,0,1.2-1,2.45,2.45,0,0,0,.33-1.77l-1.43.68a.8.8,0,0,1-.13.58,1.18,1.18,0,0,1-.49.42,1.34,1.34,0,0,1-1,.12,1.8,1.8,0,0,1-.84-.82l3.63-1.72-.12-.25a3.3,3.3,0,0,0-2-2,2.69,2.69,0,0,0-1.89.22,2.52,2.52,0,0,0-1.62,2.12,3.94,3.94,0,0,0,2.18,3.68Zm-.66-4a1.08,1.08,0,0,1,.62-.65,1.14,1.14,0,0,1,.79-.08,1.35,1.35,0,0,1,.81.69l-2.16,1a1.51,1.51,0,0,1-.06-.94Z" transform="translate(0 0.08)"/><polygon class="4e7cdd2a-3b74-4f2a-8060-606c951960fd" points="222.88 29.69 220.49 24.59 225.81 28.3 227.3 27.6 223.93 20.47 222.54 21.13 224.87 26.1 219.69 22.47 218.11 23.22 221.48 30.35 222.88 29.69"/><path class="4e7cdd2a-3b74-4f2a-8060-606c951960fd" d="M228.88,26.12a3.3,3.3,0,0,0,3.78-1.79,3,3,0,0,0-.18-2.49,3,3,0,0,0-5.62.15,3,3,0,0,0,.21,2.41A3,3,0,0,0,228.88,26.12ZM229,21.5a1.22,1.22,0,0,1,1.31.06,2.43,2.43,0,0,1,.73,1,2.3,2.3,0,0,1,.26,1.18,1.39,1.39,0,0,1-1.57,1.18,1.55,1.55,0,0,1-.51-.18,2.8,2.8,0,0,1-1-2.12A1.22,1.22,0,0,1,229,21.5Z" transform="translate(0 0.08)"/><rect class="4e7cdd2a-3b74-4f2a-8060-606c951960fd" x="235.69" y="14.87" width="1.65" height="7.89" transform="translate(14.66 103) rotate(-25.31)"/><path class="4e7cdd2a-3b74-4f2a-8060-606c951960fd" d="M241.61,20.75l-1.52-3.22a1.4,1.4,0,0,1-.15-.85.87.87,0,0,1,.53-.59.8.8,0,0,1,.91,0,1.93,1.93,0,0,1,.43.66l1.5,3.18,1.39-.66-1.5-3.17a1.41,1.41,0,0,1-.15-.9,1,1,0,0,1,.58-.63.72.72,0,0,1,.67,0,1.37,1.37,0,0,1,.58.7l1.52,3.21,1.39-.66-1.73-3.66a1.83,1.83,0,0,0-1.13-1.06,2.11,2.11,0,0,0-1.54.16,1.66,1.66,0,0,0-.81.78,2.64,2.64,0,0,0-.2.73,2.26,2.26,0,0,0-.91-.36,2.1,2.1,0,0,0-1.85,1,2.06,2.06,0,0,0-.2.81l-.37-.78-1.33.63,2.5,5.29Z" transform="translate(0 0.08)"/><path class="4e7cdd2a-3b74-4f2a-8060-606c951960fd" d="M253.56,14.84a.44.44,0,0,1-.33-.11,1.81,1.81,0,0,1-.37-.57l-1.35-2.86a1.45,1.45,0,0,0-1.37-.89,3.22,3.22,0,0,0-1.46.36,3.35,3.35,0,0,0-1.38,1,2.09,2.09,0,0,0-.11,1.93l1.34-.63a1,1,0,0,1-.05-.57A.94.94,0,0,1,249,12a1.63,1.63,0,0,1,.64-.19.58.58,0,0,1,.57.38.39.39,0,0,1,0,.39.84.84,0,0,1-.28.25l-1.16.78a2.11,2.11,0,0,0-.88,1.05A1.78,1.78,0,0,0,248,16a1.62,1.62,0,0,0,1.07.94,1.86,1.86,0,0,0,1.27-.16,2.48,2.48,0,0,0,1-.78,2.79,2.79,0,0,0,.38-.8,3,3,0,0,0,.42.57l1.5-.71Zm-2.49,0a1.5,1.5,0,0,1-.73.7.75.75,0,0,1-.49.06.65.65,0,0,1-.45-.39.71.71,0,0,1,0-.72,1.84,1.84,0,0,1,.54-.5,4.44,4.44,0,0,0,.59-.46,1.26,1.26,0,0,0,.25-.31l.32.68a1,1,0,0,1,0,1Z" transform="translate(0 0.08)"/><path class="4e7cdd2a-3b74-4f2a-8060-606c951960fd" d="M254.71,13.77a2.29,2.29,0,0,0,1.93-.1,1.78,1.78,0,0,0,.82-.69,1.75,1.75,0,0,0,.22-.77h0l.3.64a1.14,1.14,0,0,1-.25,1.59,2.29,2.29,0,0,1-1.14.35.72.72,0,0,1-.37-.27l-1.51.71a1.5,1.5,0,0,0,1.32.87,3.4,3.4,0,0,0,1.74-.37c1.14-.54,1.77-1.21,1.9-2a3,3,0,0,0-.38-1.73l-2.37-5-1.33.63.35.8a1.74,1.74,0,0,0-2-.19,2.18,2.18,0,0,0-1.22,1.41A3.23,3.23,0,0,0,253,12,3.29,3.29,0,0,0,254.71,13.77ZM254.3,10a1,1,0,0,1,.57-.69,1.15,1.15,0,0,1,1.11,0,2,2,0,0,1,.81,1,2.24,2.24,0,0,1,.26,1.16,1.13,1.13,0,0,1-.71.93,1,1,0,0,1-1.09-.08,2.05,2.05,0,0,1-.7-.87A2.16,2.16,0,0,1,254.3,10Z" transform="translate(0 0.08)"/><path class="4e7cdd2a-3b74-4f2a-8060-606c951960fd" d="M260.78,11.09a2.91,2.91,0,0,0,2.18-.26,2.78,2.78,0,0,0,1.2-1A2.46,2.46,0,0,0,264.48,8l-1.43.68a.8.8,0,0,1-.13.58,1.18,1.18,0,0,1-.49.42,1.34,1.34,0,0,1-1,.12,1.8,1.8,0,0,1-.84-.82l3.63-1.72L264.09,7a3.3,3.3,0,0,0-2-2,2.69,2.69,0,0,0-1.89.22,2.52,2.52,0,0,0-1.62,2.11A3.41,3.41,0,0,0,259,9.18,3.34,3.34,0,0,0,260.78,11.09Zm-.66-4a1.08,1.08,0,0,1,.62-.65,1.14,1.14,0,0,1,.79-.08,1.35,1.35,0,0,1,.81.69l-2.16,1a1.54,1.54,0,0,1-.06-1Z" transform="translate(0 0.08)"/></g><path class="65c3baf1-40be-4728-986d-3176d653a14a" d="M45.82,269.65v34.59H41.09l-20-28.58v28.58H16.17v-37h4.94l19.77,28.36V266.42Z" transform="translate(0 0.08)"/><path class="65c3baf1-40be-4728-986d-3176d653a14a" d="M70.73,281.46a13.41,13.41,0,0,1,3,8.81q0,6.45-3,10.1a10.55,10.55,0,0,1-16.33,0q-3-3.64-3-10.1a13.46,13.46,0,0,1,3-8.81,10.57,10.57,0,0,1,16.33,0Zm-8.16,18.7a5.93,5.93,0,0,0,4.94-2.58c1.29-1.58,1.93-4,1.93-7.31a9.18,9.18,0,0,0-1.93-6,6,6,0,0,0-9.88,0,9.19,9.19,0,0,0-1.94,6c0,3.3.65,5.73,1.94,7.31A5.92,5.92,0,0,0,62.57,300.16Z" transform="translate(0 0.08)"/><path class="65c3baf1-40be-4728-986d-3176d653a14a" d="M99.07,269.22v35H94.13V266.42Z" transform="translate(0 0.08)"/><path class="65c3baf1-40be-4728-986d-3176d653a14a" d="M142.46,280.17a10.93,10.93,0,0,1,2.37,7.31v16.76H140.1V287.91c0-2.15-.36-3.65-1.07-4.51a4.7,4.7,0,0,0-7.09.21,6.27,6.27,0,0,0-1.51,4.3v16.33h-4.72V287.91q0-6-5.16-6a5.35,5.35,0,0,0-4.51,1.94,6.9,6.9,0,0,0-1.51,4.72v15.69h-4.72V277.6l4.72,2.36v.21a7.83,7.83,0,0,1,6-2.57q5.37,0,7.52,3.86a10.7,10.7,0,0,1,2.79-2.36,7.49,7.49,0,0,1,4.73-1.5A9.3,9.3,0,0,1,142.46,280.17Z" transform="translate(0 0.08)"/><path class="65c3baf1-40be-4728-986d-3176d653a14a" d="M169.53,280.6a9.82,9.82,0,0,1,2.36,6.88v16.76h-4.51v-3.65a15.85,15.85,0,0,1-2.37,1.93,13.12,13.12,0,0,1-6.66,1.72,10.1,10.1,0,0,1-6.23-1.94,7.2,7.2,0,0,1-2.36-5.58c0-3.44,1.36-5.87,4.08-7.31a16.12,16.12,0,0,1,8.38-1.93h5.16q0-5.81-6-5.8a6.44,6.44,0,0,0-4.3,1.29,4.7,4.7,0,0,0-2.14,3.22l-.43,1.5-3.66-3.43.22-.43a7.51,7.51,0,0,1,3.22-4.3,12.58,12.58,0,0,1,7.31-1.93Q167,277.6,169.53,280.6Zm-7.09,11q-8.17,0-8.17,5.16a2.69,2.69,0,0,0,1.29,2.36,4.7,4.7,0,0,0,3.44,1.08,9.11,9.11,0,0,0,6-2.37,5.7,5.7,0,0,0,2.37-4.51v-1.72Z" transform="translate(0 0.08)"/><path class="65c3baf1-40be-4728-986d-3176d653a14a" d="M198.74,276.09v25.35q0,13.32-12.46,13.32c-3.59,0-6.38-.78-8.38-2.36a11.43,11.43,0,0,1-3.66-6.87L174,304,179.4,306l.22.43a4.53,4.53,0,0,0,1.5,2.57,8.53,8.53,0,0,0,5.16,1.29q7.51,0,7.51-8.38v-1.71a10,10,0,0,1-8.16,3.65,11.2,11.2,0,0,1-9.24-4.3,14.59,14.59,0,0,1-3.22-9.67,13.76,13.76,0,0,1,3.22-9.45,11.23,11.23,0,0,1,9.24-4.3,10.28,10.28,0,0,1,8.16,3.44v-3.44ZM179.4,296.5a6.78,6.78,0,0,0,5.8,2.58,7.41,7.41,0,0,0,6-2.58,12.46,12.46,0,0,0,0-13.32,7.17,7.17,0,0,0-5.8-2.58,6.77,6.77,0,0,0-5.8,2.58,10,10,0,0,0-2.15,6.66A10.78,10.78,0,0,0,179.4,296.5Z" transform="translate(0 0.08)"/><path class="65c3baf1-40be-4728-986d-3176d653a14a" d="M218.28,293.5l3.87,3.22-.43.64a11.1,11.1,0,0,1-2.58,4.08,12,12,0,0,1-8.17,2.8,10.9,10.9,0,0,1-8.59-3.65q-3.23-3.66-3.22-9.67a13.44,13.44,0,0,1,3.22-9.24A10.39,10.39,0,0,1,211,277.6q6,0,9.24,4.08,2.58,3.66,2.79,10.1v.86H203.88a12,12,0,0,0,1.94,5.37,7,7,0,0,0,5.15,1.93,7.72,7.72,0,0,0,4.73-1.29,7.26,7.26,0,0,0,2.15-3.87Zm0-4.95c-.72-4.43-3.15-6.66-7.31-6.66a6.7,6.7,0,0,0-4.94,1.94,12,12,0,0,0-2.15,4.72Z" transform="translate(0 0.08)"/><path class="65c3baf1-40be-4728-986d-3176d653a14a" d="M269,266.42l-15.46,20v17.83h-4.95V286.41l-15.46-20h6.23l11.81,15,11.6-15Z" transform="translate(0 0.08)"/><path class="65c3baf1-40be-4728-986d-3176d653a14a" d="M287.86,293.5l3.87,3.22-.43.64a10.84,10.84,0,0,1-2.58,4.08,12,12,0,0,1-8.16,2.8,10.92,10.92,0,0,1-8.6-3.65,14.13,14.13,0,0,1-3.22-9.67,13.49,13.49,0,0,1,3.22-9.24,10.41,10.41,0,0,1,8.6-4.08q6,0,9.24,4.08,2.56,3.66,2.79,10.1v.86H273.47A12,12,0,0,0,275.4,298a7,7,0,0,0,5.16,1.93,7.69,7.69,0,0,0,4.72-1.29,7.26,7.26,0,0,0,2.15-3.87Zm0-4.95c-.72-4.43-3.15-6.66-7.3-6.66a6.68,6.68,0,0,0-4.94,1.94,11.86,11.86,0,0,0-2.15,4.72Z" transform="translate(0 0.08)"/><path class="65c3baf1-40be-4728-986d-3176d653a14a" d="M304.18,281.68v16.11a2.46,2.46,0,0,0,.43,1.72c.14.15.65.22,1.51.22h4.08v4.51h-4.51q-3.45,0-4.95-1.94a6.76,6.76,0,0,1-1.28-4.51V281.68h-5.38v-4.51h5.38v-7.31l4.72,1.94v5.37h6.66v4.51Z" transform="translate(0 0.08)"/></svg>