<svg xmlns="http://www.w3.org/2000/svg" viewBox="0 0 434.27 64.11"><defs><style>.cls-1{fill:red;}.cls-2{fill:blue;}.cls-3{fill:#39b54a;}</style></defs><title>资源 4</title><g id="图层_2" data-name="图层 2"><g id="logo"><g id="rays"><path class="cls-1" d="M27.37,17c3.7,0,6.36.83,8,2.51s2.41,4.15,2.41,7.43v2.75a11.26,11.26,0,0,1-1.69,6.57,8,8,0,0,1-5.5,3.09l8.25,10.23a.76.76,0,0,1,.15.73c-.07.32-.32.48-.77.48H32a1.93,1.93,0,0,1-.87-.14,1.72,1.72,0,0,1-.48-.49L23,40.07H7.39v9.61a.94.94,0,0,1-1.07,1.06H1.11C.37,50.74,0,50.39,0,49.68V18.4A1.28,1.28,0,0,1,1.45,17Zm-20,17.23H25.88a4.65,4.65,0,0,0,3.47-1.06,4.53,4.53,0,0,0,1-3.24v-2a4.53,4.53,0,0,0-1-3.24,4.69,4.69,0,0,0-3.47-1.06H8c-.41,0-.62.19-.62.58Z"/><path class="cls-1" d="M64.26,24.24a22.88,22.88,0,0,1,5.45.55,8.27,8.27,0,0,1,3.55,1.74,6.69,6.69,0,0,1,1.91,3A15.35,15.35,0,0,1,75.75,34V46.88a9.11,9.11,0,0,1-.17,1.91A2.62,2.62,0,0,1,75,50a2.2,2.2,0,0,1-1.09.6,7.5,7.5,0,0,1-1.74.17h-23a13.09,13.09,0,0,1-3.54-.41,5.44,5.44,0,0,1-2.3-1.23A4.52,4.52,0,0,1,42.12,47a11.6,11.6,0,0,1-.36-3.09V41.57a9.2,9.2,0,0,1,.36-2.68,4.53,4.53,0,0,1,1.23-2,5.67,5.67,0,0,1,2.3-1.23,13.09,13.09,0,0,1,3.54-.41H68.84v-.91a7.05,7.05,0,0,0-.24-2A2.71,2.71,0,0,0,67.78,31a3.68,3.68,0,0,0-1.59-.75A11.71,11.71,0,0,0,63.58,30H43.4a.77.77,0,0,1-.87-.87V25.11a.77.77,0,0,1,.87-.87Zm3.18,21.19a1.39,1.39,0,0,0,1.09-.36,2,2,0,0,0,.31-1.28V39.54H51.17a3,3,0,0,0-2.1.6,2.42,2.42,0,0,0-.6,1.77v1a2.64,2.64,0,0,0,.6,1.91,3,3,0,0,0,2.1.6Z"/><path class="cls-1" d="M114.56,24.24a.69.69,0,0,1,.7.36,1,1,0,0,1-.07.84L96.65,58.13a5.82,5.82,0,0,1-2.73,2.48,12.18,12.18,0,0,1-4.9.8H85.64a.77.77,0,0,1-.87-.87v-4a.77.77,0,0,1,.87-.87h2.85A2.58,2.58,0,0,0,91,54.6L93.56,50a3.65,3.65,0,0,1-1.86-.58,4.84,4.84,0,0,1-1.23-1.5l-13-22.5a.92.92,0,0,1-.08-.84.7.7,0,0,1,.7-.36h5.55a1.18,1.18,0,0,1,1.16.67L95.49,43.5a5,5,0,0,0,.6.89.75.75,0,0,0,.56.22L108,24.91a1.2,1.2,0,0,1,1.16-.67Z"/><path class="cls-1" d="M149.22,24.24a.77.77,0,0,1,.87.87V29a.77.77,0,0,1-.87.87H127.45a3,3,0,0,0-2.08.55,2.16,2.16,0,0,0-.58,1.62v.72a2,2,0,0,0,.58,1.52,3,3,0,0,0,2.08.56h16.27q4,0,5.79,1.69a6.36,6.36,0,0,1,1.74,4.78V44a9.63,9.63,0,0,1-.39,2.85A4.74,4.74,0,0,1,149.58,49a5.67,5.67,0,0,1-2.34,1.33,11.77,11.77,0,0,1-3.57.46H119a.77.77,0,0,1-.87-.87V46a.77.77,0,0,1,.87-.87h22.89a3.26,3.26,0,0,0,2.1-.53,2.3,2.3,0,0,0,.6-1.79v-1.3a1.91,1.91,0,0,0-.6-1.5,3.26,3.26,0,0,0-2.1-.53H125.62q-4.07,0-5.8-1.66A6.42,6.42,0,0,1,118.08,33V30.85a9,9,0,0,1,.39-2.73,4.93,4.93,0,0,1,1.28-2.1,5.72,5.72,0,0,1,2.34-1.32,11.86,11.86,0,0,1,3.57-.46Z"/></g><g id="and"><path class="cls-2" d="M206.19,63.1c-1.75-1.75-3.41-3.5-5.81-6.08a25.41,25.41,0,0,1-18.15,7.09c-12.06,0-19.06-8.1-19.06-17.41,0-8.47,5.06-14.27,12.16-18.14v-.28c-3.23-4.05-5.16-8.57-5.16-13C170.17,7.74,175.6,0,185.92,0c7.74,0,13.72,5.16,13.72,13.17,0,6.54-3.77,11.7-13.63,16.58V30c5.25,6.08,11.15,12.9,15.11,17.32C204,43,205.91,37,207.11,29.2h7.37c-1.66,9.77-4.33,17.5-8.94,22.94,3.32,3.5,6.54,7,10.23,11Zm-9.77-10.68c-3.68-4.06-10.59-11.61-17.5-19.53-3.32,2.11-8,6.08-8,12.62,0,7.09,5.25,12.52,12.72,12.52A17.35,17.35,0,0,0,196.42,52.42ZM177.54,14.55c0,4.43,2,7.83,4.69,11.15,6.27-3.59,10.32-6.91,10.32-12.16,0-3.78-2.12-8-7.18-8S177.54,9.76,177.54,14.55Z"/></g><g id="signs"><path class="cls-3" d="M224.38,28.23a3.9,3.9,0,1,1,3.89,3.89A3.76,3.76,0,0,1,225.51,31,3.72,3.72,0,0,1,224.38,28.23Zm0,23.32A3.89,3.89,0,1,1,231,54.31a3.89,3.89,0,0,1-6.64-2.76Zm1.55-25.26a.78.78,0,1,0,.78-.78A.69.69,0,0,0,225.93,26.29Zm0,23.32a.78.78,0,1,0,.78-.78A.69.69,0,0,0,225.93,49.61Zm6.22-29.15a3.89,3.89,0,1,1,6.65,2.76,3.89,3.89,0,0,1-6.65-2.76Zm0,15.55a3.84,3.84,0,1,1,1.13,2.76A3.76,3.76,0,0,1,232.15,36Zm0,15.54a3.79,3.79,0,0,1,1.13-2.76,4,4,0,0,1,5.52,0,3.94,3.94,0,0,1,0,5.52,3.94,3.94,0,0,1-5.52,0A3.76,3.76,0,0,1,232.15,51.55Zm1.56-33a.78.78,0,0,0,1.55,0,.78.78,0,1,0-1.55,0Zm0,15.54a.78.78,0,1,0,.77-.77A.69.69,0,0,0,233.71,34.06Zm0,15.55a.78.78,0,1,0,.77-.78A.69.69,0,0,0,233.71,49.61Zm6.22-29.15a3.89,3.89,0,1,1,6.64,2.76,3.88,3.88,0,0,1-6.64-2.76Zm0,15.55a3.83,3.83,0,1,1,1.12,2.76A3.75,3.75,0,0,1,239.93,36Zm0,15.54a3.89,3.89,0,1,1,6.64,2.76,3.88,3.88,0,0,1-6.64-2.76Zm1.55-33a.78.78,0,0,0,1.56,0,.78.78,0,1,0-1.56,0Zm0,15.54a.78.78,0,1,0,.78-.77A.69.69,0,0,0,241.48,34.06Zm0,15.55a.78.78,0,1,0,.78-.78A.69.69,0,0,0,241.48,49.61Zm6.22-29.15a3.89,3.89,0,1,1,6.65,2.76,3.89,3.89,0,0,1-6.65-2.76Zm0,15.55a3.84,3.84,0,1,1,1.13,2.76A3.76,3.76,0,0,1,247.7,36Zm0,15.54a3.79,3.79,0,0,1,1.13-2.76,3.94,3.94,0,1,1-1.13,2.76Zm1.56-33a.68.68,0,0,0,.77.77.69.69,0,0,0,.78-.77.69.69,0,0,0-.78-.78A.68.68,0,0,0,249.26,18.52Zm0,15.54a.68.68,0,0,0,.77.78.78.78,0,1,0,0-1.55A.68.68,0,0,0,249.26,34.06Zm0,15.55a.68.68,0,0,0,.77.78.78.78,0,0,0,0-1.56A.68.68,0,0,0,249.26,49.61Zm6.21-29.15a3.89,3.89,0,1,1,6.65,2.76,3.89,3.89,0,0,1-6.65-2.76Zm0,23.32a3.86,3.86,0,1,1,1.13,2.76A3.76,3.76,0,0,1,255.47,43.78ZM257,18.52a.78.78,0,0,0,1.55,0,.78.78,0,1,0-1.55,0Zm0,23.32a.78.78,0,1,0,.78-.78A.69.69,0,0,0,257,41.84Z"/><path class="cls-3" d="M271,20.46a3.89,3.89,0,1,1,6.65,2.76A3.89,3.89,0,0,1,271,20.46Zm0,31.09a3.79,3.79,0,0,1,1.13-2.76A3.94,3.94,0,1,1,271,51.55Zm1.56-33a.68.68,0,0,0,.77.77.69.69,0,0,0,.78-.77.69.69,0,0,0-.78-.78A.68.68,0,0,0,272.58,18.52Zm0,31.09a.68.68,0,0,0,.77.78.78.78,0,1,0,0-1.56A.68.68,0,0,0,272.58,49.61Zm6.21-29.15a3.89,3.89,0,1,1,6.65,2.76,3.89,3.89,0,0,1-6.65-2.76Zm0,7.77A3.86,3.86,0,1,1,279.92,31,3.76,3.76,0,0,1,278.79,28.23Zm0,7.78a3.84,3.84,0,1,1,1.13,2.76A3.76,3.76,0,0,1,278.79,36Zm0,7.77a3.86,3.86,0,1,1,1.13,2.76A3.76,3.76,0,0,1,278.79,43.78Zm0,7.77a3.79,3.79,0,0,1,1.13-2.76,4,4,0,0,1,5.52,0,3.94,3.94,0,0,1,0,5.52,3.94,3.94,0,0,1-5.52,0A3.76,3.76,0,0,1,278.79,51.55Zm1.56-33a.69.69,0,0,0,.78.77.68.68,0,0,0,.77-.77.68.68,0,0,0-.77-.78A.69.69,0,0,0,280.35,18.52Zm0,7.77a.69.69,0,0,0,.78.78.78.78,0,0,0,0-1.56A.69.69,0,0,0,280.35,26.29Zm0,7.77a.69.69,0,0,0,.78.78.78.78,0,1,0-.78-.78Zm0,7.78a.68.68,0,0,0,.78.77.68.68,0,0,0,.77-.77.68.68,0,0,0-.77-.78A.69.69,0,0,0,280.35,41.84Zm0,7.77a.69.69,0,0,0,.78.78.78.78,0,0,0,0-1.56A.69.69,0,0,0,280.35,49.61Zm6.22-29.15a3.72,3.72,0,0,1,1.13-2.76,3.88,3.88,0,0,1,6.64,2.76,3.75,3.75,0,0,1-1.12,2.76,3.94,3.94,0,0,1-5.52,0A3.72,3.72,0,0,1,286.57,20.46Zm0,31.09a3.86,3.86,0,1,1,1.13,2.76A3.75,3.75,0,0,1,286.57,51.55Zm1.55-33a.78.78,0,0,0,1.56,0,.78.78,0,1,0-1.56,0Zm0,31.09a.78.78,0,1,0,.78-.78A.69.69,0,0,0,288.12,49.61Z"/><path class="cls-3" d="M302.12,28.23A3.84,3.84,0,1,1,303.24,31,3.75,3.75,0,0,1,302.12,28.23Zm0,7.78a3.83,3.83,0,1,1,1.12,2.76A3.75,3.75,0,0,1,302.12,36Zm0,7.77a3.84,3.84,0,1,1,1.12,2.76A3.75,3.75,0,0,1,302.12,43.78Zm1.55-17.49a.78.78,0,1,0,.78-.78A.69.69,0,0,0,303.67,26.29Zm0,7.77a.78.78,0,1,0,.78-.77A.69.69,0,0,0,303.67,34.06Zm0,7.78a.78.78,0,0,0,1.56,0,.78.78,0,1,0-1.56,0Zm6.22-21.38a3.89,3.89,0,1,1,6.65,2.76,3.89,3.89,0,0,1-6.65-2.76Zm0,31.09A3.79,3.79,0,0,1,311,48.79a3.94,3.94,0,1,1-1.13,2.76Zm1.56-33a.68.68,0,0,0,.77.77.69.69,0,0,0,.78-.77.69.69,0,0,0-.78-.78A.68.68,0,0,0,311.45,18.52Zm0,31.09a.68.68,0,0,0,.77.78.78.78,0,1,0,0-1.56A.68.68,0,0,0,311.45,49.61Zm6.21-29.15a3.89,3.89,0,1,1,6.65,2.76,3.89,3.89,0,0,1-6.65-2.76Zm0,15.55a3.84,3.84,0,1,1,1.13,2.76A3.76,3.76,0,0,1,317.66,36Zm0,15.54a3.79,3.79,0,0,1,1.13-2.76,4,4,0,0,1,5.52,0,3.94,3.94,0,0,1,0,5.52,3.94,3.94,0,0,1-5.52,0A3.76,3.76,0,0,1,317.66,51.55Zm1.56-33a.78.78,0,0,0,1.55,0,.78.78,0,1,0-1.55,0Zm0,15.54a.78.78,0,1,0,.78-.77A.69.69,0,0,0,319.22,34.06Zm0,15.55a.78.78,0,1,0,.78-.78A.69.69,0,0,0,319.22,49.61Zm6.22-29.15a3.72,3.72,0,0,1,1.13-2.76,3.88,3.88,0,0,1,6.64,2.76,3.75,3.75,0,0,1-1.12,2.76,3.94,3.94,0,0,1-5.52,0A3.72,3.72,0,0,1,325.44,20.46Zm0,15.55a3.72,3.72,0,0,1,1.13-2.76A3.94,3.94,0,1,1,325.44,36Zm0,15.54a3.86,3.86,0,1,1,1.13,2.76A3.75,3.75,0,0,1,325.44,51.55Zm1.55-33a.78.78,0,0,0,1.56,0,.78.78,0,1,0-1.56,0Zm0,15.54a.78.78,0,1,0,.78-.77A.69.69,0,0,0,327,34.06Zm0,15.55a.78.78,0,1,0,.78-.78A.69.69,0,0,0,327,49.61Zm6.22-29.15a3.89,3.89,0,1,1,6.65,2.76,3.89,3.89,0,0,1-6.65-2.76Zm0,15.55a3.84,3.84,0,1,1,1.13,2.76A3.76,3.76,0,0,1,333.21,36Zm0,7.77a3.86,3.86,0,1,1,1.13,2.76A3.76,3.76,0,0,1,333.21,43.78Zm0,7.77a3.79,3.79,0,0,1,1.13-2.76,4,4,0,0,1,5.52,0,3.94,3.94,0,0,1,0,5.52,3.94,3.94,0,0,1-5.52,0A3.76,3.76,0,0,1,333.21,51.55Zm1.56-33a.78.78,0,0,0,1.55,0,.78.78,0,1,0-1.55,0Zm0,15.54a.78.78,0,1,0,.77-.77A.69.69,0,0,0,334.77,34.06Zm0,7.78a.78.78,0,0,0,1.55,0,.78.78,0,1,0-1.55,0Zm0,7.77a.78.78,0,1,0,.77-.78A.69.69,0,0,0,334.77,49.61Z"/><path class="cls-3" d="M348.76,20.46a3.72,3.72,0,0,1,1.13-2.76,3.88,3.88,0,0,1,6.64,2.76,3.75,3.75,0,0,1-1.12,2.76,3.94,3.94,0,0,1-5.52,0A3.72,3.72,0,0,1,348.76,20.46Zm0,7.77a3.84,3.84,0,0,1,3.89-3.88A3.89,3.89,0,1,1,349.89,31,3.72,3.72,0,0,1,348.76,28.23Zm0,7.78a3.72,3.72,0,0,1,1.13-2.76A3.94,3.94,0,1,1,348.76,36Zm0,7.77A3.72,3.72,0,0,1,349.89,41a3.89,3.89,0,1,1,0,5.52A3.72,3.72,0,0,1,348.76,43.78Zm0,7.77a3.86,3.86,0,1,1,1.13,2.76A3.75,3.75,0,0,1,348.76,51.55Zm1.55-33a.78.78,0,0,0,1.56,0,.78.78,0,1,0-1.56,0Zm0,7.77a.78.78,0,1,0,.78-.78A.69.69,0,0,0,350.31,26.29Zm0,7.77a.78.78,0,1,0,.78-.77A.69.69,0,0,0,350.31,34.06Zm0,7.78a.78.78,0,0,0,1.56,0,.78.78,0,1,0-1.56,0Zm0,7.77a.78.78,0,1,0,.78-.78A.69.69,0,0,0,350.31,49.61Zm6.22-21.38A3.86,3.86,0,1,1,357.66,31,3.76,3.76,0,0,1,356.53,28.23Zm1.56-1.94a.78.78,0,1,0,.78-.78A.69.69,0,0,0,358.09,26.29ZM364.31,36a3.75,3.75,0,0,1,1.12-2.76A3.9,3.9,0,0,1,371,38.77,3.88,3.88,0,0,1,364.31,36Zm1.55-1.95a.78.78,0,1,0,.78-.77A.69.69,0,0,0,365.86,34.06Zm6.22,9.72a3.86,3.86,0,1,1,1.13,2.76A3.76,3.76,0,0,1,372.08,43.78Zm1.56-1.94a.68.68,0,0,0,.77.77.68.68,0,0,0,.78-.77.69.69,0,0,0-.78-.78A.68.68,0,0,0,373.64,41.84Zm6.21-21.38a3.89,3.89,0,1,1,6.65,2.76,3.89,3.89,0,0,1-6.65-2.76Zm0,7.77A3.86,3.86,0,1,1,381,31,3.76,3.76,0,0,1,379.85,28.23Zm0,7.78A3.84,3.84,0,1,1,381,38.77,3.76,3.76,0,0,1,379.85,36Zm0,7.77A3.86,3.86,0,1,1,381,46.54,3.76,3.76,0,0,1,379.85,43.78Zm0,7.77A3.79,3.79,0,0,1,381,48.79a4,4,0,0,1,5.52,0,3.94,3.94,0,0,1,0,5.52,3.94,3.94,0,0,1-5.52,0A3.76,3.76,0,0,1,379.85,51.55Zm1.56-33a.78.78,0,0,0,1.55,0,.78.78,0,1,0-1.55,0Zm0,7.77a.78.78,0,1,0,.78-.78A.69.69,0,0,0,381.41,26.29Zm0,7.77a.78.78,0,1,0,.78-.77A.69.69,0,0,0,381.41,34.06Zm0,7.78a.78.78,0,1,0,.78-.78A.69.69,0,0,0,381.41,41.84Zm0,7.77a.78.78,0,1,0,.78-.78A.69.69,0,0,0,381.41,49.61Z"/><path class="cls-3" d="M395.4,28.23A3.86,3.86,0,1,1,396.53,31,3.76,3.76,0,0,1,395.4,28.23Zm0,23.32a3.79,3.79,0,0,1,1.13-2.76,4,4,0,0,1,5.52,0,3.94,3.94,0,0,1,0,5.52,3.94,3.94,0,0,1-5.52,0A3.76,3.76,0,0,1,395.4,51.55ZM397,26.29a.78.78,0,1,0,.77-.78A.69.69,0,0,0,397,26.29Zm0,23.32a.78.78,0,1,0,.77-.78A.69.69,0,0,0,397,49.61Zm6.22-29.15a3.89,3.89,0,1,1,6.64,2.76,3.88,3.88,0,0,1-6.64-2.76Zm0,15.55a3.83,3.83,0,1,1,1.12,2.76A3.75,3.75,0,0,1,403.18,36Zm0,15.54a3.89,3.89,0,1,1,6.64,2.76,3.88,3.88,0,0,1-6.64-2.76Zm1.55-33a.78.78,0,0,0,1.56,0,.78.78,0,1,0-1.56,0Zm0,15.54a.78.78,0,1,0,.78-.77A.69.69,0,0,0,404.73,34.06Zm0,15.55a.78.78,0,1,0,.78-.78A.69.69,0,0,0,404.73,49.61ZM411,20.46a3.72,3.72,0,0,1,1.13-2.76,3.88,3.88,0,0,1,6.64,2.76,3.89,3.89,0,1,1-7.77,0ZM411,36a3.72,3.72,0,0,1,1.13-2.76A3.94,3.94,0,1,1,411,36Zm0,15.54a3.86,3.86,0,1,1,1.13,2.76A3.75,3.75,0,0,1,411,51.55Zm1.55-33a.78.78,0,0,0,1.56,0,.78.78,0,1,0-1.56,0Zm0,15.54a.78.78,0,1,0,.78-.77A.69.69,0,0,0,412.5,34.06Zm0,15.55a.78.78,0,1,0,.78-.78A.69.69,0,0,0,412.5,49.61Zm6.22-29.15a3.89,3.89,0,1,1,6.65,2.76,3.89,3.89,0,0,1-6.65-2.76Zm0,15.55a3.84,3.84,0,1,1,1.13,2.76A3.76,3.76,0,0,1,418.72,36Zm0,15.54a3.79,3.79,0,0,1,1.13-2.76,4,4,0,0,1,5.52,0,3.94,3.94,0,0,1,0,5.52,3.94,3.94,0,0,1-5.52,0A3.76,3.76,0,0,1,418.72,51.55Zm1.56-33a.78.78,0,0,0,1.55,0,.78.78,0,1,0-1.55,0Zm0,15.54a.78.78,0,1,0,.78-.77A.69.69,0,0,0,420.28,34.06Zm0,15.55a.78.78,0,1,0,.78-.78A.69.69,0,0,0,420.28,49.61Zm6.22-29.15a3.75,3.75,0,0,1,1.12-2.76,3.94,3.94,0,0,1,5.52,0,3.94,3.94,0,0,1,0,5.52,3.88,3.88,0,0,1-6.64-2.76Zm0,23.32A3.75,3.75,0,0,1,427.62,41a3.94,3.94,0,0,1,5.52,0,3.94,3.94,0,0,1,0,5.52,3.88,3.88,0,0,1-6.64-2.76Zm1.55-25.26a.78.78,0,0,0,1.56,0,.78.78,0,1,0-1.56,0Zm0,23.32a.78.78,0,0,0,1.56,0,.78.78,0,1,0-1.56,0Z"/></g></g></g></svg>